<svg width="104" height="84" viewBox="0 0 104 84" fill="none" xmlns="http://www.w3.org/2000/svg">
<path d="M72.1413 66.1742C70.2003 68.6792 68.0127 70.9829 65.6115 73.0508C61.4962 76.5918 56.7928 79.4439 51.6977 81.3287C46.2393 83.3544 40.4145 84.2043 34.6049 83.8228C28.6532 83.4224 22.7998 81.7813 17.5779 78.8794C14.915 77.4065 12.4529 75.5967 10.2524 73.4947C7.99207 71.3239 6.14951 68.7851 4.68117 66.0237C1.98073 60.9573 0.47758 55.2717 0.0983741 49.5575C-0.283274 43.9049 0.447922 38.2323 2.25052 32.8612C4.03466 27.6021 6.81716 22.7681 10.5707 18.6653C14.1952 14.7372 18.5074 11.5049 23.2946 9.12791C27.7599 6.87609 32.5687 5.38281 37.5241 4.70923C30.5778 8.32971 24.7691 14.0414 21.7803 21.393C18.6335 29.1438 18.1486 38.0868 20.9485 46.0104C22.5063 50.3942 25.034 54.4548 28.2379 57.9535C28.4087 58.1416 28.5815 58.3265 28.7564 58.508C37.9232 68.1485 52.2323 73.3505 64.9923 69.1755C67.4512 68.3665 69.8418 67.3629 72.1413 66.1742Z" fill="#7C7C7C"/>
<path d="M37.2282 4.62559C36.6738 8.95606 36.6087 13.3352 37.0343 17.6802C37.1561 18.9185 37.3178 20.1544 37.5192 21.3877C37.5478 21.5655 38.0041 21.5668 37.9742 21.3877C37.2697 17.0742 37.0528 12.6951 37.3277 8.33311C37.4056 7.09478 37.5242 5.85729 37.6833 4.62062C37.7069 4.44158 37.2519 4.44158 37.2282 4.62062V4.62559Z" fill="#7C7C7C"/>
<path d="M37.4834 4.68716C36.3819 4.08167 35.105 3.37299 34.7917 2.04391C34.7283 1.7766 34.6885 1.42226 34.7979 1.16365C34.9384 0.826717 35.3089 1.03932 35.483 1.21836C35.9123 1.69612 36.2586 2.24244 36.5074 2.83464C36.8139 3.51677 37.0059 4.24473 37.0756 4.98928C37.103 5.27897 37.558 5.28146 37.5307 4.98928C37.4575 4.20085 37.2594 3.42907 36.9438 2.70285C36.7846 2.33742 36.5949 1.98599 36.3769 1.65227C36.1854 1.32443 35.9457 1.02727 35.6657 0.770769C35.4059 0.560652 35.0441 0.451241 34.7283 0.602924C34.4125 0.754606 34.3043 1.14252 34.2857 1.48069C34.2446 2.22667 34.589 2.95027 35.064 3.50851C35.652 4.20103 36.4689 4.6511 37.2534 5.08377C37.5108 5.22426 37.7395 4.83511 37.4834 4.68965V4.68716Z" fill="#7C7C7C"/>
<path d="M37.6641 4.85348C37.6927 3.52564 37.6852 1.97276 38.4325 0.812764C38.5829 0.57778 38.9957 0.263226 39.1722 0.648649C39.2903 0.906011 39.2207 1.25662 39.1722 1.51896C39.0649 2.13123 38.8521 2.7202 38.5431 3.25958C38.1892 3.87502 37.7172 4.41455 37.1544 4.84727C36.9231 5.0263 37.2464 5.34459 37.4764 5.16928C38.0752 4.70158 38.576 4.12047 38.9502 3.45915C39.3244 2.79782 39.5646 2.06925 39.6571 1.31506C39.6957 0.996772 39.7081 0.639945 39.5328 0.353987C39.4445 0.211021 39.3105 0.102054 39.1525 0.0447375C38.9946 -0.0125786 38.8219 -0.014886 38.6625 0.038189C38.2982 0.147599 38.0694 0.478317 37.9066 0.801574C37.7203 1.1746 37.5768 1.56749 37.4789 1.97276C37.2488 2.91021 37.224 3.88247 37.2041 4.84105C37.1966 5.13447 37.6529 5.13447 37.6591 4.84105L37.6641 4.85348Z" fill="#7C7C7C"/>
<path d="M37.2208 4.65074C36.0772 6.44951 35.4839 8.54318 35.5138 10.6745C35.5138 10.9679 35.9738 10.9679 35.9688 10.6745C35.9397 8.62409 36.5115 6.61 37.6137 4.88075C37.7716 4.63209 37.3775 4.40332 37.2208 4.65074Z" fill="#7C7C7C"/>
<path d="M37.1746 4.98833C37.5476 5.53538 37.6968 6.17816 37.8721 6.80727C38.0474 7.43638 38.2165 8.06052 38.3819 8.68963C38.7258 9.99509 39.0495 11.3059 39.3529 12.6222C39.4188 12.9069 39.8577 12.7863 39.7918 12.4978C39.4801 11.1385 39.1465 9.78166 38.7909 8.42729C38.6119 7.75011 38.4274 7.07458 38.2376 6.40071C38.076 5.8288 37.9131 5.25937 37.575 4.76205C37.4121 4.52085 37.0167 4.74837 37.1821 4.99206L37.1746 4.98833Z" fill="#7C7C7C"/>
<path d="M39.6934 15.9299L46.4072 29.8052C46.6882 30.3688 46.8291 30.7915 46.8299 31.0733C46.8299 31.6701 46.3492 32.2089 45.3877 32.6896C44.8232 32.9714 44.3798 33.1123 44.0574 33.1123C43.7751 33.1244 43.4963 33.046 43.2617 32.8885C43.0793 32.7662 42.9264 32.6048 42.8141 32.4161C42.7221 32.2503 42.5936 32.0016 42.4286 31.6701L41.1356 28.9846H34.2477L32.9547 31.6701C32.7889 32.0016 32.6605 32.242 32.5693 32.3912C32.4488 32.5701 32.2972 32.7259 32.1217 32.8512C31.8915 33.0153 31.6134 33.0984 31.331 33.0875C31.0077 33.0875 30.5643 32.9466 30.0006 32.6647C29.0383 32.2006 28.5576 31.6701 28.5584 31.0733C28.5584 30.7907 28.6993 30.368 28.9811 29.8052L35.6949 15.9051C35.8769 15.5237 36.1665 15.2039 36.528 14.985C36.8804 14.7587 37.2902 14.6379 37.7091 14.6369C38.6009 14.6328 39.2624 15.0638 39.6934 15.9299ZM37.6792 21.8978L36.0381 25.3044H39.3453L37.6792 21.8978Z" fill="#7C7C7C"/>
<path d="M55.4598 19.8033C57.1175 19.8033 58.4975 20.4333 59.5999 21.6931C60.7023 22.953 61.2535 24.4947 61.2535 26.3182V30.6946C61.2581 30.9811 61.2457 31.2675 61.2162 31.5525C61.1766 31.7843 61.0966 32.0073 60.98 32.2115C60.7637 32.6433 60.1254 32.8588 59.0653 32.858C58.0533 32.858 57.4233 32.6425 57.1755 32.2115C57.0568 32.0038 56.9767 31.7763 56.9393 31.5401C56.9098 31.2426 56.8974 30.9438 56.902 30.6449V26.2934C56.902 25.6129 56.7113 25.0824 56.3301 24.7019C56.1394 24.5124 55.912 24.3639 55.6619 24.2656C55.4117 24.1672 55.1441 24.1211 54.8754 24.13C54.3109 24.1214 53.7611 24.3105 53.3213 24.6646C52.8737 25.0219 52.6168 25.4239 52.5504 25.8706V30.6946C52.5551 30.9811 52.5426 31.2675 52.5131 31.5525C52.4735 31.7843 52.3935 32.0073 52.2769 32.2115C52.0606 32.6433 51.4224 32.8588 50.3622 32.858C49.3179 32.858 48.6796 32.6342 48.4476 32.1866C48.3453 31.9828 48.2741 31.7649 48.2362 31.5401C48.2062 31.251 48.1937 30.9604 48.1989 30.6698V15.8061C48.1943 15.5197 48.2067 15.2332 48.2362 14.9483C48.2709 14.7266 48.3423 14.5123 48.4476 14.3142C48.6788 13.8666 49.3253 13.6428 50.3871 13.6428C51.4315 13.6428 52.0614 13.8666 52.2769 14.3142C52.3935 14.5184 52.4735 14.7414 52.5131 14.9731C52.5426 15.2581 52.5551 15.5446 52.5504 15.831V21.3264C53.3785 20.3118 54.3482 19.8042 55.4598 19.8033Z" fill="#7C7C7C"/>
<path d="M63.3417 31.6891C63.0259 31.4902 62.8693 31.1756 62.8693 30.7442C62.8693 30.3128 63.1838 29.6588 63.8142 28.7798C63.9957 28.498 64.2899 28.3571 64.6969 28.3571C65.1039 28.3571 65.6551 28.5602 66.3505 28.9663C67.0467 29.3733 67.6767 29.5764 68.2403 29.5755C69.2515 29.5755 69.7571 29.3766 69.7571 28.9787C69.7571 28.6638 69.2018 28.4317 68.0911 28.2825C66.9856 28.111 65.9275 27.7131 64.9829 27.1138C64.5021 26.8154 64.1043 26.3471 63.7893 25.7089C63.4743 25.0706 63.3169 24.3122 63.3169 23.4336C63.3169 20.8144 65.1155 19.5048 68.7128 19.5048C69.8889 19.5048 71.0991 19.7866 72.3432 20.3502C72.9234 20.6147 73.2135 20.9462 73.2135 21.3449C73.2135 21.7436 73.0312 22.2326 72.6665 22.812C72.3009 23.3922 71.9279 23.6823 71.5475 23.6823C71.3486 23.6823 70.9797 23.558 70.4409 23.3093C69.8909 23.0584 69.2925 22.9311 68.6879 22.9363C67.709 22.9363 67.22 23.1187 67.2208 23.4834C67.2208 23.9807 67.7844 24.3039 68.9117 24.4531C70.0209 24.5737 71.0992 24.8938 72.0945 25.398C72.5744 25.631 72.9764 26.033 73.3005 26.604C73.6246 27.1751 73.7863 27.8921 73.7854 28.7549C73.7854 29.617 73.6238 30.3505 73.3005 30.9556C73.0006 31.5372 72.5269 32.0109 71.9453 32.3108C70.8836 32.8238 69.5532 33.0808 67.9544 33.0816C66.3555 33.0825 64.8179 32.6183 63.3417 31.6891Z" fill="#7C7C7C"/>
<path d="M83.9038 21.1523C84.0032 20.224 84.658 19.7598 85.8682 19.7598C86.5147 19.7598 86.9954 19.8095 87.3104 19.909C87.4504 19.9456 87.5813 20.011 87.6947 20.1008C87.8082 20.1907 87.9017 20.3032 87.9693 20.4312C88.0794 20.6371 88.155 20.8597 88.1931 21.0901C88.2226 21.3751 88.2351 21.6616 88.2304 21.948V30.6511C88.2351 30.9375 88.2226 31.224 88.1931 31.509C88.156 31.7379 88.0848 31.9601 87.9818 32.1679C87.7497 32.5989 87.1819 32.8144 86.2785 32.8144C85.375 32.8144 84.7699 32.7025 84.4632 32.4787C84.3087 32.3632 84.1809 32.2156 84.0886 32.0461C83.9963 31.8765 83.9418 31.6891 83.9286 31.4965C83.3144 32.376 82.2908 32.8153 80.8577 32.8144C79.4246 32.8136 78.0942 32.1588 76.8667 30.85C75.6391 29.5404 75.0258 28.0194 75.0266 26.2871C75.0274 24.5548 75.6449 23.038 76.8791 21.7366C78.1133 20.4345 79.4685 19.7838 80.9447 19.7847C81.4736 19.778 81.9982 19.8795 82.4864 20.0831C82.9506 20.282 83.2738 20.4685 83.4562 20.6425C83.6212 20.7979 83.771 20.9686 83.9038 21.1523ZM79.3782 26.3244C79.3808 26.6018 79.4394 26.8759 79.5505 27.1301C79.6616 27.3843 79.8229 27.6135 80.0247 27.8039C80.226 28.0162 80.4691 28.1844 80.7388 28.2978C81.0085 28.4112 81.2987 28.4674 81.5912 28.4629C81.8797 28.4692 82.166 28.4124 82.4301 28.2964C82.6943 28.1804 82.9299 28.0081 83.1205 27.7915C83.5055 27.3945 83.7236 26.865 83.7297 26.312C83.7231 25.7564 83.5155 25.222 83.1453 24.8076C82.9548 24.5795 82.7145 24.3982 82.4429 24.2775C82.1714 24.1568 81.8758 24.1 81.5788 24.1113C81.2784 24.1012 80.9795 24.1585 80.7041 24.279C80.4287 24.3994 80.1838 24.5801 79.9874 24.8076C79.6032 25.2176 79.386 25.7563 79.3782 26.3182V26.3244Z" fill="#7C7C7C"/>
<path d="M97.5044 19.7536C99.1621 19.7536 100.542 20.3877 101.645 21.6559C102.747 22.924 103.299 24.4699 103.299 26.2934V30.6698C103.304 30.9563 103.291 31.2427 103.261 31.5277C103.227 31.7493 103.156 31.9636 103.051 32.1617C102.819 32.6093 102.172 32.8331 101.11 32.8331C99.9338 32.8331 99.2546 32.5264 99.0722 31.9131C98.9715 31.6309 98.923 31.2081 98.923 30.6449V26.2685C98.923 25.588 98.7278 25.0575 98.3374 24.6771C97.947 24.2966 97.4253 24.106 96.7721 24.1052C96.1173 24.1052 95.5864 24.3041 95.1794 24.702C94.7725 25.0998 94.5698 25.622 94.5715 26.2685V30.6698C94.5754 30.9562 94.563 31.2426 94.5342 31.5277C94.4965 31.7523 94.4159 31.9676 94.2967 32.1617C94.0812 32.6093 93.443 32.8331 92.382 32.8331C91.3385 32.8331 90.7007 32.6093 90.4686 32.1617C90.3653 31.9539 90.2936 31.7318 90.256 31.5028C90.2271 31.2178 90.215 30.9313 90.2199 30.6449V21.8424C90.2154 21.5642 90.2274 21.2861 90.256 21.0094C90.2942 20.7848 90.3748 20.5696 90.4935 20.3753C90.7247 19.9608 91.3625 19.7536 92.4069 19.7536C93.4189 19.7536 94.0406 19.9443 94.2718 20.3255C94.4454 20.6366 94.5313 20.989 94.5205 21.345C94.6477 21.1604 94.7986 20.9932 94.9693 20.8477C95.1753 20.6524 95.3997 20.4775 95.6395 20.3255C96.1881 19.9489 96.8389 19.7493 97.5044 19.7536Z" fill="#7C7C7C"/>
<path d="M56.8353 51.0712C59.8416 53.9606 61.9735 56.1306 63.2309 57.5811C63.879 58.3088 64.2031 58.923 64.2031 59.4236C64.2031 59.9243 63.8102 60.5136 63.0245 61.1916C62.2387 61.8696 61.5951 62.2086 61.0936 62.2086C60.5922 62.2086 59.9879 61.7942 59.2809 60.9653L52.7971 53.5677V59.3217C52.8036 59.6658 52.7891 60.01 52.7536 60.3524C52.7049 60.6222 52.6103 60.8817 52.4738 61.1195C52.1978 61.6491 51.4315 61.9144 50.175 61.9152C48.7982 61.9152 47.9926 61.5422 47.758 60.7962C47.6395 60.4813 47.5806 59.9802 47.5815 59.2931V42.9102C47.5763 42.571 47.5908 42.2318 47.625 41.8944C47.6717 41.6191 47.7668 41.3544 47.906 41.1123C48.1811 40.5827 48.947 40.3175 50.2036 40.3166C51.5787 40.3166 52.3943 40.6801 52.6504 41.407C52.749 41.7386 52.7979 42.2495 52.7971 42.94V48.5672C55.4694 45.5609 57.6306 43.095 59.2809 41.1695C59.9689 40.3639 60.5681 39.9611 61.0787 39.9611C61.5893 39.9611 62.2379 40.3001 63.0245 40.9781C63.8102 41.6561 64.2031 42.2454 64.2031 42.746C64.2031 43.2467 63.9084 43.8401 63.3191 44.5264C62.1794 45.8435 60.4111 47.6513 58.014 49.9497L56.8353 51.0712Z" fill="#7C7C7C"/>
<path d="M65.677 48.98C65.6715 48.6404 65.6864 48.3008 65.7217 47.963C65.7641 47.6915 65.848 47.4282 65.9704 47.1822C66.2448 46.6708 67.011 46.4151 68.2693 46.4151C69.2125 46.4151 69.8806 46.5808 70.2735 46.9124C70.605 47.1884 70.782 47.6107 70.8043 48.1793C70.8226 48.3766 70.8321 48.6617 70.8329 49.0347V59.3541C70.8388 59.6936 70.8242 60.0333 70.7894 60.3711C70.7427 60.6457 70.648 60.91 70.5097 61.1519C70.2536 61.6633 69.4972 61.919 68.2407 61.919C67.0023 61.919 66.2456 61.6538 65.9704 61.1233C65.8497 60.8814 65.7659 60.6229 65.7217 60.3562C65.6857 60.0139 65.6707 59.6696 65.677 59.3255V48.98Z" fill="#7C7C7C"/>
<path d="M68.9325 39.8722L69.2297 40.474C69.2833 40.5833 69.3629 40.6779 69.4615 40.7495C69.5601 40.821 69.6748 40.8673 69.7954 40.8843L70.4581 40.9812C70.5978 40.9996 70.7294 41.0571 70.8378 41.1472C70.9461 41.2372 71.0267 41.3561 71.0703 41.4901C71.1139 41.6241 71.1186 41.7677 71.084 41.9043C71.0494 42.0408 70.9767 42.1648 70.8746 42.2618L70.3947 42.7293C70.3077 42.8146 70.2426 42.9196 70.2049 43.0354C70.1673 43.1512 70.1581 43.2744 70.1783 43.3945L70.2915 44.0559C70.3169 44.1943 70.3027 44.3372 70.2504 44.4678C70.1981 44.5985 70.1099 44.7118 69.996 44.7945C69.8821 44.8771 69.7472 44.9259 69.6067 44.9352C69.4663 44.9444 69.3261 44.9137 69.2023 44.8466L68.6093 44.5346C68.5014 44.4783 68.3816 44.4488 68.2599 44.4488C68.1382 44.4488 68.0184 44.4783 67.9105 44.5346L67.3162 44.8466C67.1925 44.9137 67.0523 44.9444 66.9119 44.9352C66.7714 44.9259 66.6364 44.8771 66.5225 44.7945C66.4086 44.7118 66.3204 44.5985 66.2682 44.4678C66.2159 44.3372 66.2017 44.1943 66.2271 44.0559L66.3403 43.3945C66.3613 43.2744 66.3526 43.1509 66.3149 43.035C66.2772 42.919 66.2116 42.8141 66.1239 42.7293L65.644 42.2618C65.5418 42.1648 65.4692 42.0408 65.4346 41.9043C65.3999 41.7677 65.4047 41.6241 65.4483 41.4901C65.4918 41.3561 65.5725 41.2372 65.6808 41.1472C65.7892 41.0571 65.9208 40.9996 66.0605 40.9812L66.7244 40.8843C66.8448 40.8671 66.9592 40.8207 67.0576 40.7492C67.156 40.6777 67.2354 40.5832 67.2889 40.474L67.586 39.8722C67.6467 39.7451 67.7421 39.6377 67.8613 39.5626C67.9804 39.4874 68.1184 39.4475 68.2593 39.4475C68.4002 39.4475 68.5382 39.4874 68.6573 39.5626C68.7764 39.6377 68.8719 39.7451 68.9325 39.8722Z" fill="#7C7C7C"/>
<path d="M83.6095 39.9163C83.6919 39.7679 83.8036 39.6378 83.9378 39.5339C84.072 39.4301 84.226 39.3546 84.3903 39.312C85.3684 39.0766 86.3885 39.0766 87.3667 39.312C87.533 39.3559 87.6883 39.4338 87.8229 39.5408C87.9575 39.6478 88.0685 39.7816 88.1488 39.9337C88.2786 40.1779 88.3681 40.4416 88.4136 40.7145C88.4483 41.0523 88.4628 41.3919 88.4571 41.7315V59.3217C88.4629 59.6608 88.4484 60 88.4136 60.3374C88.3692 60.6037 88.2743 60.8591 88.1338 61.0896C87.8396 61.6201 87.0107 61.8853 85.6472 61.8853C84.2838 61.8853 83.5212 61.4038 83.3596 60.4406C82.5307 61.3847 81.3811 61.8563 79.9107 61.8555C78.1427 61.8555 76.5318 61.0842 75.078 59.5417C73.6241 57.9992 72.8972 56.2018 72.8972 54.1495C72.8972 52.0956 73.6287 50.2928 75.0916 48.7412C76.5546 47.1896 78.1609 46.4133 79.9107 46.4125C81.3637 46.4125 82.4934 46.9036 83.2999 47.8858V41.7004C83.2944 41.3608 83.3093 41.0212 83.3446 40.6834C83.3884 40.4144 83.4779 40.1549 83.6095 39.9163ZM78.8203 55.9349C79.0568 56.19 79.3442 56.3926 79.664 56.5297C79.9837 56.6668 80.3287 56.7352 80.6765 56.7306C81.0184 56.7381 81.3578 56.6708 81.6709 56.5333C81.9841 56.3959 82.2634 56.1916 82.4893 55.9349C82.9461 55.4644 83.2047 54.8364 83.2116 54.1806C83.2036 53.5222 82.9576 52.8889 82.5191 52.3977C82.0566 51.8482 81.4349 51.573 80.6541 51.5722C79.8734 51.5714 79.2447 51.8416 78.7681 52.3828C78.318 52.868 78.0656 53.5039 78.0606 54.1657C78.0565 54.8147 78.3097 55.4044 78.8203 55.9349Z" fill="#7C7C7C"/>
<path d="M90.9349 60.5323C90.5619 60.2961 90.3754 59.9231 90.3754 59.4134C90.3754 58.9036 90.7484 58.1274 91.4944 57.0847C91.7099 56.7531 92.0584 56.5873 92.54 56.5873C93.0216 56.5873 93.6743 56.8265 94.4982 57.3047C95.3221 57.7863 96.0681 58.0271 96.7361 58.0271C97.9347 58.0271 98.534 57.7913 98.534 57.3196C98.534 56.9467 97.8758 56.6715 96.5596 56.4941C95.2515 56.2901 93.9996 55.8186 92.8819 55.1091C92.3117 54.756 91.84 54.201 91.467 53.4443C91.094 52.6875 90.9071 51.787 90.9063 50.7426C90.9063 47.6377 93.0382 46.0852 97.3018 46.0852C98.696 46.0852 100.13 46.4192 101.604 47.0873C102.291 47.4023 102.635 47.7956 102.636 48.2672C102.636 48.7388 102.42 49.319 101.987 50.0078C101.555 50.6949 101.113 51.0389 100.661 51.0397C100.425 51.0397 99.9878 50.8922 99.3496 50.5971C98.6976 50.2999 97.9885 50.1493 97.272 50.1558C96.1116 50.1558 95.5314 50.3717 95.5314 50.8035C95.5314 51.3928 96.1994 51.7762 97.5356 51.9536C98.8501 52.0962 100.128 52.4753 101.308 53.0725C101.877 53.3485 102.354 53.8251 102.738 54.5023C103.121 55.1795 103.313 56.0291 103.312 57.0511C103.312 58.0731 103.12 58.9434 102.738 59.662C102.382 60.3515 101.821 60.913 101.131 61.2684C99.8755 61.8767 98.299 62.1809 96.4017 62.1809C94.5044 62.1809 92.6822 61.6314 90.9349 60.5323Z" fill="#7C7C7C"/>
</svg>
