<svg width="20" height="12" viewBox="0 0 20 12" fill="none" xmlns="http://www.w3.org/2000/svg">
<path d="M6.10485 0C6.65256 0 7.15913 0.0428571 7.62199 0.169714C8.042 0.246896 8.44292 0.405283 8.80228 0.636C9.13999 0.847715 9.39285 1.14514 9.56085 1.52657C9.72971 1.908 9.81371 2.37514 9.81371 2.88343C9.81371 3.47743 9.68771 3.98572 9.39285 4.36714C9.13999 4.74943 8.71828 5.088 8.21256 5.34257C8.92914 5.55514 9.47685 5.93657 9.81371 6.44486C10.1514 6.954 10.3623 7.59 10.3623 8.31086C10.3623 8.90486 10.2354 9.41315 10.0246 9.83743C9.81371 10.2617 9.47685 10.6431 9.09713 10.8977C8.68467 11.1706 8.22871 11.3712 7.74885 11.4909C7.24313 11.6186 6.73742 11.7034 6.23171 11.7034H0.582275V0H6.10485ZM5.76713 4.74857C6.23085 4.74857 6.61056 4.62172 6.90542 4.41C7.20028 4.19829 7.32714 3.816 7.32714 3.34972C7.32714 3.09514 7.28428 2.84057 7.20028 2.67172C7.11628 2.502 6.98942 2.37429 6.82142 2.24743C6.65256 2.16257 6.48371 2.07771 6.27285 2.03571C6.06199 1.99286 5.85199 1.99286 5.59828 1.99286H3.1537V4.74943H5.76799L5.76713 4.74857ZM5.89399 9.75257C6.14685 9.75257 6.39971 9.70972 6.61056 9.66772C6.82346 9.62723 7.0248 9.54031 7.20028 9.41315C7.37204 9.28906 7.51573 9.13018 7.62199 8.94686C7.70599 8.73515 7.79085 8.48057 7.79085 8.184C7.79085 7.59 7.62199 7.16572 7.28513 6.86914C6.94742 6.61457 6.48371 6.48772 5.93599 6.48772H3.1537V9.75343H5.89399V9.75257ZM14.03 9.70972C14.3668 10.0491 14.8726 10.2189 15.5471 10.2189C16.0109 10.2189 16.4326 10.092 16.7694 9.88029C17.1071 9.62572 17.318 9.37115 17.402 9.11657H19.4677C19.13 10.134 18.6243 10.8549 17.9506 11.3211C17.2751 11.7454 16.4746 12 15.5051 12C14.8849 12.0019 14.2698 11.8867 13.6923 11.6606C13.1726 11.4656 12.7092 11.1453 12.3431 10.728C11.9517 10.3376 11.6623 9.85693 11.5006 9.32829C11.2897 8.77714 11.2048 8.184 11.2048 7.50515C11.2048 6.86915 11.2897 6.276 11.5006 5.724C11.7033 5.19265 12.0033 4.70373 12.3851 4.28229C12.7649 3.90086 13.2286 3.56229 13.7343 3.34972C14.2972 3.12348 14.8985 3.00822 15.5051 3.01029C16.2217 3.01029 16.8543 3.138 17.402 3.43457C17.9506 3.73114 18.3714 4.07057 18.7091 4.57972C19.0536 5.06874 19.3103 5.61403 19.4677 6.19114C19.5517 6.78429 19.5937 7.37829 19.5517 8.05629H13.4394C13.4394 8.73515 13.6923 9.37115 14.03 9.71058V9.70972ZM16.6854 5.25772C16.3906 4.96114 15.9269 4.79143 15.3783 4.79143C14.9994 4.79143 14.7037 4.87629 14.4509 5.00314C14.198 5.13086 14.03 5.30057 13.8611 5.47029C13.706 5.63422 13.6033 5.84076 13.5663 6.06343C13.5234 6.276 13.4814 6.44486 13.4814 6.61457H17.2751C17.1911 5.97857 16.9803 5.55514 16.6854 5.25772ZM12.9757 0.805715H17.6969V1.95086H12.9766V0.805715H12.9757Z"/>
</svg>
