<svg width="213" height="59" viewBox="0 0 213 59" fill="none" xmlns="http://www.w3.org/2000/svg">
<g clip-path="url(#clip0_98_207)">
<path fill-rule="evenodd" clip-rule="evenodd" d="M60.9673 19.9933L46.1679 5.46327C44.4807 3.73434 42.4646 2.3604 40.2384 1.42232C38.0122 0.484239 35.6209 0.000976562 33.2051 0.000976562C30.7893 0.000976562 28.3979 0.484239 26.1717 1.42232C23.9455 2.3604 21.9295 3.73434 20.2422 5.46327L5.45017 19.9933C3.72539 21.6719 2.35448 23.6791 1.41838 25.8964C0.482288 28.1137 0 30.4961 0 32.9029C0 35.3097 0.482288 37.692 1.41838 39.9093C2.35448 42.1266 3.72539 44.1338 5.45017 45.8125L7.31916 47.6488C10.6419 50.9125 27.9577 58.3707 29.5152 59.0013V30.7873C29.4988 30.357 29.3548 29.9414 29.1017 29.5931C28.8486 29.2449 28.4976 28.9797 28.0934 28.8314L18.8684 25.2228C18.1149 25.8535 17.1727 26.2153 16.1907 26.2509C15.2086 26.2865 14.2427 25.994 13.4455 25.4195C12.6482 24.8451 12.065 24.0214 11.7881 23.0785C11.5111 22.1357 11.5561 21.1275 11.9159 20.2131C12.2758 19.2987 12.93 18.5302 13.7753 18.029C14.6205 17.5278 15.6086 17.3225 16.5836 17.4454C17.5585 17.5684 18.4647 18.0126 19.1591 18.708C19.8535 19.4033 20.2964 20.3102 20.4179 21.2853L29.3949 24.7901C31.8364 25.7781 34.5664 25.7781 37.0079 24.7901L45.9849 21.2853C46.106 20.3094 46.5487 19.4017 47.2432 18.7056C47.9377 18.0094 48.8443 17.5645 49.8199 17.4411C50.7955 17.3177 51.7843 17.5228 52.6303 18.0242C53.4763 18.5255 54.1311 19.2943 54.4913 20.2093C54.8515 21.1243 54.8966 22.1332 54.6195 23.0767C54.3423 24.0202 53.7587 24.8444 52.9609 25.4192C52.163 25.994 51.1964 26.2866 50.2137 26.2507C49.231 26.2149 48.2883 25.8526 47.5345 25.2212L38.3088 28.8314C37.9046 28.9797 37.5537 29.2449 37.3006 29.5932C37.0474 29.9414 36.9035 30.357 36.8871 30.7873V59.0013C38.4446 58.3786 55.7609 50.922 59.0831 47.6488L60.9603 45.8125C62.6829 44.1326 64.052 42.125 64.9867 39.9079C65.9215 37.6908 66.4031 35.309 66.4031 32.9029C66.4031 30.4968 65.9215 28.115 64.9867 25.8979C64.052 23.6807 62.6829 21.6731 60.9603 19.9933H60.9673ZM33.2046 19.3227C31.9687 19.3225 30.7711 18.8937 29.8159 18.1095C28.8607 17.3253 28.2069 16.2342 27.966 15.022C27.7251 13.8098 27.9119 12.5516 28.4947 11.4617C29.0774 10.3718 30.02 9.51774 31.1619 9.04492C32.3038 8.5721 33.5742 8.50983 34.7569 8.86872C35.9395 9.2276 36.9611 9.98543 37.6477 11.0131C38.3342 12.0408 38.6432 13.2747 38.522 14.5046C38.4007 15.7345 37.8568 16.8844 36.9829 17.7583C35.9807 18.7599 34.6218 19.3226 33.2049 19.3227H33.2046Z" fill="#7C7C7C"/>
<path fill-rule="evenodd" clip-rule="evenodd" d="M61.2854 20.3184L36.8867 53.9107V59.0006C38.4442 58.3779 55.7606 50.9213 59.0827 47.648L60.9584 45.8124C64.3813 42.4744 66.3385 37.9137 66.3996 33.1331C66.4606 28.3524 64.6205 23.7432 61.2838 20.319L61.2854 20.3184Z" fill="#7C7C7C"/>
<path fill-rule="evenodd" clip-rule="evenodd" d="M20.3063 20.7076L22.3126 9.92859L28.6952 11.1165C29.2671 10.216 30.0955 9.50727 31.0736 9.08157C32.0518 8.65587 33.135 8.53269 34.1838 8.72789C35.2326 8.92309 36.1989 9.42774 36.9584 10.1769C37.718 10.926 38.2359 11.8853 38.4455 12.9313L57.3635 16.4523L46.1692 5.4623C44.482 3.73336 42.4659 2.35942 40.2397 1.42134C38.0135 0.483262 35.6221 0 33.2063 0C30.7906 0 28.3992 0.483262 26.173 1.42134C23.9468 2.35942 21.9307 3.73336 20.2435 5.4623L5.45017 19.9926C3.72539 21.6713 2.35448 23.6785 1.41838 25.8958C0.482288 28.113 0 30.4954 0 32.9022C0 35.309 0.482288 37.6914 1.41838 39.9087C2.35448 42.1259 3.72539 44.1332 5.45017 45.8118L7.31916 47.6481C8.45857 48.7679 11.2433 50.3802 14.4741 52.0414L19.4254 25.4401L18.8684 25.2221C18.1342 25.8369 17.2202 26.1967 16.264 26.2474C15.3077 26.2981 14.3608 26.0371 13.5657 25.5035C12.7705 24.9699 12.1701 24.1926 11.8546 23.2885C11.5392 22.3843 11.5257 21.4022 11.8164 20.4898C12.107 19.5773 12.6859 18.7839 13.4662 18.2288C14.2464 17.6736 15.1858 17.3868 16.1431 17.4113C17.1004 17.4359 18.0238 17.7705 18.7746 18.365C19.5254 18.9594 20.0629 19.7815 20.3063 20.7076Z" fill="#7C7C7C"/>
<path fill-rule="evenodd" clip-rule="evenodd" d="M42.9527 2.84706L22.2527 9.83896L20.6406 5.06593C23.5704 2.24456 27.3646 0.491437 31.412 0.0889297C35.4595 -0.313577 39.5246 0.657957 42.9527 2.84706Z" fill="#7C7C7C"/>
<path d="M80.7852 11.7715H84.2164V30.9172H80.7852V11.7715Z" fill="#7C7C7C"/>
<path d="M101.347 14.457H95.7029V30.9172H92.2717V14.457H86.6523V11.7715H101.347V14.457Z" fill="#7C7C7C"/>
<path d="M107.863 21.3448C107.863 15.4517 111.593 11.5234 117.188 11.5234C121.987 11.5234 125.467 14.3828 125.965 18.6847H122.608C122.235 16.049 120.07 14.2838 117.188 14.2838C113.73 14.2838 111.419 17.1184 111.419 21.3455C111.419 25.5726 113.732 28.4068 117.188 28.4068C120.072 28.4068 122.235 26.6165 122.608 23.9561H125.965C125.467 28.2825 121.962 31.1662 117.188 31.1662C111.594 31.1662 107.863 27.2376 107.863 21.3448Z" fill="#7C7C7C"/>
<path d="M142.449 28.2317V30.9172H128.848V11.7715H142.15V14.457H132.279V19.7543H141.256V22.4389H132.279V28.2301L142.449 28.2317Z" fill="#7C7C7C"/>
<path d="M160.824 11.7715V30.9172H157.592L148.814 17.1425H148.765L148.839 30.9172H145.582V11.7715H148.839L157.592 25.5964H157.642L157.567 11.7715H160.824Z" fill="#7C7C7C"/>
<path d="M177.952 14.457H172.308V30.9172H168.877V14.457H163.258V11.7715H177.953L177.952 14.457Z" fill="#7C7C7C"/>
<path d="M194.015 28.2317V30.9172H180.414V11.7715H193.717V14.457H183.845V19.7543H192.822V22.4389H183.845V28.2301L194.015 28.2317Z" fill="#7C7C7C"/>
<path d="M204.732 23.1345H200.58V30.9172H197.148V11.7715H204.732C208.983 11.7715 211.843 13.9602 211.843 17.217C211.843 19.7547 210.401 21.6677 208.014 22.5629L212.539 30.9175H208.71L204.732 23.1345ZM200.58 20.5968H204.906C206.945 20.5968 208.313 19.3534 208.313 17.4638C208.313 15.6735 206.945 14.4551 204.906 14.4551H200.58L200.58 20.5968Z" fill="#7C7C7C"/>
<path d="M138.772 43.67V45.8466H138.16V39.9199H140.805C141.927 39.9199 142.488 40.5605 142.488 41.8416C142.505 42.3104 142.364 42.7712 142.089 43.151C141.939 43.331 141.748 43.4722 141.532 43.5625C141.315 43.6528 141.081 43.6895 140.847 43.6696L138.772 43.67ZM138.772 40.4303V43.1266H140.796C140.94 43.1349 141.084 43.1079 141.215 43.0479C141.346 42.9879 141.461 42.8968 141.549 42.7824C141.736 42.503 141.827 42.1701 141.808 41.8343C141.83 41.4718 141.744 41.111 141.562 40.797C141.483 40.6785 141.376 40.5824 141.249 40.5183C141.122 40.4542 140.981 40.4243 140.839 40.4316L138.772 40.4303Z" fill="#7C7C7C"/>
<path d="M143.363 43.6785C143.363 42.8339 143.514 42.2471 143.814 41.9183C144.12 41.5954 144.619 41.4338 145.311 41.4336C146.002 41.4334 146.501 41.5949 146.807 41.9183C147.113 42.2416 147.266 42.8284 147.266 43.6785C147.266 44.5345 147.113 45.1297 146.807 45.464C146.501 45.7984 146.002 45.9655 145.311 45.9655C144.619 45.9655 144.12 45.7984 143.814 45.464C143.514 45.1295 143.363 44.5343 143.363 43.6785ZM145.311 41.9437C144.795 41.9437 144.443 42.057 144.256 42.2837C144.069 42.5163 143.975 42.9869 143.975 43.6953C143.975 44.3811 144.069 44.8463 144.256 45.091C144.449 45.3348 144.8 45.4566 145.311 45.4564C145.826 45.4564 146.178 45.3346 146.365 45.091C146.558 44.8474 146.654 44.3821 146.654 43.6953C146.654 42.9869 146.561 42.5163 146.374 42.2837C146.187 42.057 145.833 41.9437 145.311 41.9437H145.311Z" fill="#7C7C7C"/>
<path d="M153.872 41.5518H154.493C154.107 43.0158 153.618 44.4507 153.03 45.8458H152.247C152.008 44.6081 151.69 43.3869 151.296 42.1897C150.99 43.4264 150.621 44.6467 150.19 45.8458H149.407C149.029 44.3876 148.563 42.9537 148.012 41.5518H148.666C149.128 42.7829 149.514 44.0408 149.823 45.3186C150.021 44.7688 150.231 44.1169 150.452 43.363C150.679 42.5691 150.84 41.9656 150.937 41.5524H151.642C152.05 42.7889 152.39 44.0463 152.663 45.3192C153.145 44.09 153.548 42.8317 153.872 41.5518Z" fill="#7C7C7C"/>
<path d="M157.181 41.4336C157.81 41.4336 158.258 41.6009 158.525 41.9354C158.796 42.2643 158.932 42.8708 158.932 43.7549H155.863C155.869 44.424 155.979 44.8747 156.195 45.1069C156.349 45.2344 156.527 45.3301 156.718 45.3885C156.909 45.4469 157.11 45.4667 157.309 45.4469C157.73 45.4434 158.148 45.3657 158.542 45.2173L158.669 45.7273C158.213 45.8771 157.737 45.9574 157.257 45.9655C156.982 45.9885 156.705 45.9551 156.443 45.8673C156.182 45.7795 155.94 45.6393 155.735 45.4552C155.412 45.1149 155.25 44.5228 155.25 43.6788C155.25 42.8741 155.403 42.2987 155.709 41.9525C156.016 41.6064 156.506 41.4334 157.181 41.4336ZM157.181 41.9522C156.832 41.9198 156.482 42.02 156.203 42.233C155.975 42.5228 155.857 42.8846 155.872 43.2534H158.303C158.323 42.8876 158.228 42.5249 158.031 42.2158C157.915 42.1158 157.78 42.0408 157.634 41.9954C157.487 41.9501 157.333 41.9354 157.181 41.9522Z" fill="#7C7C7C"/>
<path d="M161.764 41.4327C161.912 41.432 162.06 41.4406 162.206 41.4583V42.0293C162.06 42.0073 161.912 41.9959 161.764 41.9954C161.466 41.9847 161.17 42.0353 160.892 42.1442C160.8 42.1708 160.718 42.2257 160.657 42.3011C160.597 42.3765 160.562 42.4688 160.557 42.5651V45.8466H160.004V41.5519H160.557V41.858C160.685 41.718 160.848 41.614 161.028 41.5564C161.264 41.4712 161.513 41.4294 161.764 41.433V41.4327Z" fill="#7C7C7C"/>
<path d="M164.74 41.4336C165.37 41.4336 165.817 41.6009 166.084 41.9354C166.356 42.2643 166.492 42.8708 166.492 43.7549H163.422C163.428 44.424 163.538 44.8747 163.754 45.1069C163.908 45.2344 164.085 45.3301 164.277 45.3884C164.468 45.4468 164.669 45.4667 164.868 45.4469C165.289 45.4434 165.706 45.3657 166.101 45.2173L166.227 45.7273C165.772 45.8771 165.296 45.9574 164.816 45.9655C164.541 45.9885 164.264 45.9551 164.002 45.8673C163.74 45.7795 163.499 45.6393 163.293 45.4552C162.97 45.1149 162.809 44.5228 162.809 43.6788C162.809 42.8741 162.962 42.2987 163.268 41.9525C163.574 41.6064 164.065 41.4334 164.74 41.4336ZM164.74 41.9522C164.39 41.9198 164.041 42.02 163.761 42.233C163.533 42.5228 163.415 42.8846 163.43 43.2534H165.862C165.881 42.8876 165.786 42.5249 165.59 42.2158C165.474 42.1158 165.339 42.0408 165.192 41.9954C165.046 41.9501 164.892 41.9354 164.74 41.9522Z" fill="#7C7C7C"/>
<path d="M169.401 41.433C169.823 41.4114 170.24 41.5344 170.583 41.7819V39.707H171.135V45.6255C170.868 45.7402 170.588 45.823 170.302 45.872C170.005 45.93 169.703 45.9619 169.4 45.9671C168.709 45.9671 168.21 45.8056 167.904 45.4824C167.603 45.1481 167.453 44.5585 167.453 43.7137C167.453 42.8636 167.603 42.2714 167.904 41.9373C168.21 41.6011 168.709 41.433 169.401 41.433ZM169.401 45.438C169.802 45.4468 170.202 45.3861 170.583 45.2585V42.5638C170.577 42.4663 170.542 42.3727 170.483 42.2948C170.424 42.217 170.343 42.1582 170.251 42.1261C169.984 42.006 169.693 41.9492 169.401 41.9602C168.891 41.9602 168.539 42.0792 168.347 42.3173C168.16 42.5555 168.066 43.0176 168.066 43.7038C168.083 44.4296 168.177 44.8973 168.347 45.1069C168.517 45.3164 168.868 45.4268 169.401 45.438Z" fill="#7C7C7C"/>
<path d="M176.594 41.4333C177.285 41.4333 177.781 41.6005 178.082 41.9351C178.388 42.2639 178.541 42.8561 178.541 43.7115C178.541 44.5563 178.388 45.1459 178.082 45.4802C177.781 45.8031 177.285 45.9647 176.594 45.9649C176.291 45.9597 175.99 45.9278 175.693 45.8698C175.406 45.8208 175.126 45.738 174.859 45.6233V39.707H175.412V41.7819C175.755 41.5344 176.172 41.4113 176.594 41.433V41.4333ZM176.594 45.4383C177.127 45.4276 177.478 45.3171 177.648 45.1069C177.818 44.8967 177.912 44.429 177.929 43.7039C177.929 43.0123 177.833 42.5502 177.64 42.3173C177.453 42.0792 177.104 41.9602 176.593 41.9602C176.3 41.9492 176.009 42.006 175.743 42.1261C175.65 42.1583 175.57 42.217 175.511 42.2948C175.452 42.3727 175.417 42.4663 175.411 42.5638V45.2601C175.792 45.3867 176.192 45.4475 176.593 45.4396L176.594 45.4383Z" fill="#7C7C7C"/>
<path d="M180.871 46.0498C180.468 44.5097 179.939 43.0053 179.289 41.5518H179.91C180.441 42.786 180.884 44.056 181.236 45.3525C181.762 44.1137 182.214 42.8445 182.588 41.5518H183.191C182.734 43.0101 182.2 44.4434 181.592 45.8458C181.383 46.3447 181.125 46.8889 180.818 47.4785H180.172C180.406 47.0475 180.639 46.5713 180.871 46.0498Z" fill="#7C7C7C"/>
<path d="M186.695 45.8463V39.9199H187.308V45.8463H186.695Z" fill="#7C7C7C"/>
<path d="M192.935 40.4303H190.886V45.846H190.265V40.4303H188.207V39.9199H192.933L192.935 40.4303Z" fill="#7C7C7C"/>
<path d="M196.89 43.67V45.8466H196.277V39.9199H198.922C200.044 39.9199 200.605 40.5605 200.605 41.8416C200.622 42.3104 200.481 42.7713 200.206 43.151C200.056 43.331 199.865 43.4722 199.649 43.5625C199.433 43.6527 199.198 43.6895 198.964 43.6696L196.89 43.67ZM196.89 40.4303V43.1266H198.913C199.057 43.1349 199.201 43.1079 199.332 43.0479C199.463 42.9879 199.578 42.8968 199.666 42.7824C199.853 42.5031 199.944 42.1701 199.925 41.8343C199.947 41.4718 199.861 41.111 199.679 40.797C199.6 40.6785 199.493 40.5824 199.366 40.5184C199.239 40.4543 199.098 40.4244 198.956 40.4316L196.89 40.4303Z" fill="#7C7C7C"/>
<path d="M204.908 43.0993V45.6249C204.361 45.8624 203.769 45.9784 203.173 45.9649C202.703 46.008 202.232 45.8976 201.83 45.6502C201.682 45.504 201.57 45.3263 201.501 45.1305C201.432 44.9347 201.407 44.7258 201.43 44.5194C201.43 43.9639 201.575 43.5869 201.864 43.3886C202.249 43.1706 202.689 43.07 203.131 43.0993C203.543 43.101 203.953 43.1466 204.355 43.2353C204.355 42.7084 204.271 42.3654 204.101 42.2066C203.804 42.0077 203.446 41.9203 203.09 41.9599C202.67 41.9441 202.25 42.0135 201.857 42.1641L201.696 41.6455C202.159 41.5084 202.64 41.4371 203.123 41.4336C203.769 41.4336 204.229 41.5527 204.501 41.7908C204.773 42.0289 204.909 42.4651 204.908 43.0993ZM204.355 45.2674V43.7029C203.975 43.6199 203.587 43.5827 203.199 43.5922C202.883 43.5636 202.566 43.6194 202.279 43.754C202.126 43.8561 202.049 44.0971 202.049 44.4769C202.049 44.8965 202.123 45.1658 202.271 45.2848C202.556 45.4346 202.878 45.4971 203.198 45.4644C203.592 45.4647 203.984 45.3982 204.356 45.2677L204.355 45.2674Z" fill="#7C7C7C"/>
<path d="M207.963 41.4326C208.111 41.432 208.259 41.4406 208.405 41.4583V42.0293C208.259 42.0073 208.111 41.9959 207.963 41.9954C207.666 41.9847 207.369 42.0353 207.092 42.1442C206.999 42.1709 206.917 42.2258 206.857 42.3012C206.797 42.3766 206.762 42.4688 206.756 42.5651V45.8466H206.203V41.5519H206.756V41.858C206.884 41.718 207.047 41.614 207.228 41.5564C207.464 41.4712 207.713 41.4293 207.964 41.433L207.963 41.4326Z" fill="#7C7C7C"/>
<path d="M212.553 45.8463H211.838C210.693 44.4349 209.97 43.6782 209.67 43.576V45.8463H209.117V39.707H209.67V43.577C210.01 43.3505 210.682 42.6759 211.685 41.5532H212.399C211.806 42.2612 211.148 42.9131 210.435 43.5005C210.713 43.6473 211.418 44.4292 212.553 45.8463Z" fill="#7C7C7C"/>
</g>
<defs>
<clipPath id="clip0_98_207">
<rect width="212.554" height="59.001" fill="white"/>
</clipPath>
</defs>
</svg>
