<svg width="181" height="55" viewBox="0 0 181 55" fill="none" xmlns="http://www.w3.org/2000/svg">
<path d="M30.9067 21.6991C30.5013 21.0983 30.3205 20.7148 30.0397 20.4291C27.5046 17.8427 24.9059 15.332 21.9996 13.1461C20.6026 12.0959 19.103 11.6173 17.3568 11.6343C12.5162 11.6808 7.67795 11.6514 2.83731 11.6514C2.51249 11.6514 2.18522 11.6685 1.86039 11.6417C0.692974 11.5489 0.0823989 10.9554 0.026226 9.7782C-0.0201777 8.80372 0.0091299 7.8268 0.0091299 6.84988C0.0091299 5.42602 -0.0128508 4.00216 0.0164568 2.5783C0.0482067 1.02988 0.724724 0.375341 2.27314 0.336264C2.55645 0.328937 2.8422 0.336264 3.12795 0.336264C21.5527 0.336264 39.9774 0.336264 58.3997 0.336264C58.6439 0.336264 58.8881 0.336264 59.1323 0.336264C60.9787 0.35336 61.6113 0.985916 61.6186 2.83718C61.6259 5.11585 61.6259 7.39207 61.6186 9.67074C61.6137 11.3095 61.2718 11.649 59.5915 11.6514C54.5481 11.6563 49.5048 11.7125 44.4614 11.627C42.2927 11.5904 40.4829 12.1814 38.9272 13.6834C36.5289 15.9987 34.0939 18.275 31.6858 20.5829C31.4538 20.8052 31.3097 21.1154 30.9067 21.704V21.6991Z" fill="#7C7C7C"/>
<path d="M20.7616 41.0574C20.7616 37.7627 20.7616 34.4656 20.7616 31.1709C20.7616 30.7655 20.7493 30.3503 20.8153 29.9547C21.0033 28.8629 22.0315 28.4746 22.9279 29.1487C23.1868 29.3441 23.4041 29.5932 23.6337 29.8228C25.5631 31.7497 27.4876 33.6792 29.4171 35.6061C30.6895 36.8786 31.1193 36.8737 32.4235 35.5744C34.3823 33.6205 36.3361 31.6618 38.2948 29.708C38.5244 29.4784 38.7467 29.2293 39.0153 29.0534C39.7944 28.5454 40.7005 28.8654 40.9618 29.7519C41.062 30.0939 41.062 30.4749 41.062 30.8363C41.0668 37.7138 41.0693 44.5889 41.062 51.4664C41.062 53.242 40.3977 53.921 38.6392 53.9258C33.4713 53.938 28.3034 53.938 23.1355 53.9258C21.4283 53.921 20.7664 53.2615 20.7591 51.5592C20.742 48.0594 20.7542 44.5596 20.7542 41.0622L20.7616 41.0574Z" fill="#7C7C7C"/>
<path d="M78.6836 21.8537V0.14898C79.238 0.100134 79.3919 0.549518 79.6312 0.82794C81.8781 3.45586 84.1104 6.09843 86.3475 8.73611C86.7407 9.20015 87.1413 9.65686 87.6371 10.2332C87.979 9.85713 88.2794 9.55184 88.5529 9.22457C90.8878 6.45744 93.2177 3.68543 95.555 0.918305C95.8237 0.598364 96.1241 0.305288 96.4098 0C96.4782 0.0439614 96.5466 0.0854805 96.615 0.129442V21.8537H92.9564C92.7732 20.5275 92.9002 19.1574 92.8782 17.797C92.8538 16.4147 92.8734 15.0299 92.8734 13.6476V9.47369C91.0929 11.5789 89.4029 13.5816 87.6273 15.6796C85.864 13.5792 84.1788 11.5716 82.4032 9.45659V21.8537H78.6836Z" fill="#7C7C7C"/>
<path d="M141.364 39.9684C142.692 38.4566 144.38 37.9681 146.307 38.1C148.08 38.2197 149.311 39.1014 149.895 40.7475C150.19 41.5754 150.366 42.4888 150.381 43.3656C150.434 46.6578 150.4 49.9525 150.395 53.2447C150.395 53.362 150.351 53.4792 150.305 53.7185C149.094 53.931 147.86 53.8089 146.505 53.7942C146.48 53.2814 146.441 52.8491 146.439 52.4168C146.434 49.8548 146.439 47.2953 146.434 44.7333C146.434 44.2864 146.429 43.837 146.373 43.3949C146.248 42.4009 145.811 41.6072 144.8 41.2799C143.811 40.96 142.643 41.3605 141.952 42.2055C141.376 42.9114 141.273 43.7466 141.276 44.6161C141.278 47.178 141.276 49.7376 141.276 52.2996C141.276 52.7392 141.276 53.1788 141.276 53.7234H137.617V30.3213H141.11V39.8536C141.195 39.8927 141.278 39.9293 141.364 39.9684Z" fill="#7C7C7C"/>
<path d="M104.19 47.4049H95.1604C94.8258 49.0583 95.6928 50.5725 97.229 51.0976C98.7139 51.6056 100.116 51.293 101.469 50.614C101.789 50.4529 102.089 50.2575 102.497 50.0181C102.898 50.9731 103.269 51.8523 103.677 52.8219C103.208 53.0686 102.834 53.3103 102.431 53.4715C100.333 54.3068 98.1669 54.4802 95.9663 54.0015C93.9661 53.5668 92.4909 52.3823 91.707 50.5017C90.4858 47.5783 90.5078 44.6109 91.9219 41.7607C93.9954 37.5819 98.5503 37.5331 101.254 38.6932C102.184 39.0913 102.856 39.8117 103.293 40.7154C104.299 42.7938 104.4 44.9968 104.19 47.4049ZM94.9528 44.8771C96.699 45.1042 99.4906 45.0432 100.392 44.7501C100.336 44.2103 100.289 43.651 100.216 43.0942C100.184 42.8573 100.121 42.618 100.038 42.3933C99.6689 41.4066 99.0412 40.9816 98.0105 40.9987C97.0507 41.0134 96.2912 41.4115 95.749 42.1979C95.2068 42.9819 94.921 43.8489 94.9528 44.8771Z" fill="#7C7C7C"/>
<path d="M158.366 47.3947C158.154 49.4975 159.329 51.019 161.277 51.2926C162.489 51.4635 163.622 51.1802 164.697 50.6356C165.019 50.472 165.324 50.2741 165.757 50.025C166.152 50.936 166.531 51.8055 166.953 52.7775C166.543 53.0168 166.223 53.2562 165.864 53.4052C163.656 54.3235 161.368 54.5213 159.053 53.9547C157.069 53.4711 155.65 52.2206 154.898 50.3254C153.831 47.6389 153.821 44.906 154.959 42.2438C156.806 37.9185 161.16 37.3983 164.367 38.6268C165.762 39.1592 166.531 40.3144 166.98 41.6748C167.574 43.4772 167.649 45.3309 167.452 47.3824C165.901 47.3873 164.372 47.3922 162.845 47.3922C161.348 47.3922 159.851 47.3922 158.369 47.3922L158.366 47.3947ZM163.752 44.9401C163.576 43.9583 163.507 43.1109 163.263 42.3147C162.972 41.3695 162.301 40.9836 161.307 40.9958C159.419 41.0178 158.022 42.874 158.386 44.9401H163.752Z" fill="#7C7C7C"/>
<path d="M119.127 53.7545H115.981C115.859 53.1879 115.744 52.6506 115.586 51.9155C115.207 52.3038 114.948 52.5798 114.677 52.846C113.268 54.2381 111.546 54.558 109.712 54.0818C107.97 53.63 107.199 52.2696 106.923 50.582C106.639 48.8528 107.204 47.446 108.598 46.4056C110.12 45.27 111.907 44.9012 113.754 44.7546C114.272 44.7131 114.792 44.7009 115.285 44.6765C115.791 42.5541 114.858 41.3281 112.806 41.2866C111.6 41.2621 110.471 41.5552 109.409 42.1169C109.165 42.2464 108.925 42.3856 108.62 42.5541C108.349 41.9387 108.095 41.3891 107.863 40.8323C107.724 40.5001 107.614 40.1558 107.445 39.6893C108.176 39.3474 108.845 38.9737 109.555 38.7148C111.595 37.9797 113.69 37.8576 115.798 38.3534C117.549 38.7637 118.631 39.8798 118.98 41.6578C119.083 42.1731 119.183 42.7031 119.185 43.2257C119.203 46.5204 119.195 49.8175 119.193 53.1122C119.193 53.2709 119.161 53.4297 119.127 53.7545ZM115.353 47.1725C114.118 46.9771 112.97 47.1285 111.866 47.6146C111.184 47.915 110.747 48.401 110.681 49.1752C110.542 50.7896 111.868 51.8202 113.395 51.1754C114.933 50.5258 115.896 49.5904 115.356 47.1725H115.353Z" fill="#7C7C7C"/>
<path d="M99.1875 6.50586C100.536 6.50586 101.74 6.50586 102.944 6.50586C103.498 6.50586 103.557 6.9528 103.679 7.33136C104.539 9.99835 105.396 12.6678 106.253 15.3372C106.375 15.7182 106.488 16.1017 106.678 16.7244C107.831 13.2002 108.91 9.90066 110 6.56448H113.832C113.773 7.47545 107.127 25.7585 106.129 27.7685H102.543C102.634 27.4022 102.685 27.0896 102.79 26.7965C103.366 25.1895 103.916 23.5727 104.556 21.99C104.873 21.2085 104.807 20.5369 104.497 19.7773C102.863 15.7915 101.266 11.7886 99.6589 7.79295C99.5123 7.42905 99.3902 7.05538 99.1875 6.50098V6.50586Z" fill="#7C7C7C"/>
<path d="M81.5946 35.7034H76.6367V32.4771C77.5086 32.228 88.1937 32.1352 90.4504 32.3648V35.679H85.5878C85.4632 38.788 85.5462 41.7774 85.5316 44.7668C85.5169 47.7244 85.5291 50.682 85.5291 53.7325H81.6508C81.5409 52.2769 81.6117 50.7895 81.5995 49.307C81.5873 47.805 81.597 46.3006 81.597 44.7961V40.4073C81.597 38.9101 81.597 37.4106 81.597 35.701L81.5946 35.7034Z" fill="#7C7C7C"/>
<path d="M134.301 52.4343C130.679 55.7461 124.686 54.3588 123.074 49.9432C122.146 47.4032 122.128 44.8241 123.203 42.3281C124.37 39.6171 126.449 38.1395 129.463 38.0931C131.114 38.0687 132.713 38.2201 134.174 39.4803C133.8 40.4426 133.414 41.4415 132.989 42.5381C132.616 42.2841 132.335 42.0716 132.037 41.8884C129.68 40.4524 127.323 41.4244 126.715 44.1036C126.388 45.5495 126.398 47.0124 126.742 48.4534C127.243 50.544 128.767 51.5038 130.855 50.986C131.627 50.7955 132.34 50.3754 133.207 50.0042C133.534 50.7296 133.908 51.5624 134.303 52.4367L134.301 52.4343Z" fill="#7C7C7C"/>
<path d="M174.907 53.764H171.273C171.009 52.8359 170.965 39.8331 171.222 38.4947H174.534C174.6 39.203 174.661 39.8746 174.739 40.7295C175.359 40.1091 175.811 39.4863 176.414 39.0956C177.005 38.7146 177.735 38.5118 178.432 38.3336C179.181 38.1431 179.953 38.1748 180.744 38.5753C180.478 39.8136 180.217 41.0347 179.938 42.3267C179.601 42.2339 179.342 42.146 179.076 42.0923C176.861 41.6478 174.714 43.3549 174.868 45.4504C175.039 47.7559 174.907 50.081 174.907 52.3988C174.907 52.7993 174.907 53.2023 174.907 53.7616V53.764Z" fill="#7C7C7C"/>
</svg>
