<svg width="122" height="61" viewBox="0 0 122 61" fill="none" xmlns="http://www.w3.org/2000/svg">
<g clip-path="url(#clip0_202_213)">
<path d="M107.882 61L105.002 59.7066L117.151 32.0921H90.8828L105.002 0L107.882 1.2934L95.7333 28.9079H122.002L107.882 61Z" fill="#7C7C7C"/>
<path d="M2.02485 9.96195C2.95081 10.9371 4.38901 11.7533 6.20138 11.7533C7.73809 11.7533 8.4866 11.0168 8.4866 10.2606C8.4866 9.26554 7.34405 8.92719 5.82706 8.56892C3.67976 8.07136 0.921709 7.47437 0.921709 4.50896C0.921709 2.29995 2.81289 0.508789 5.90588 0.508789C7.99407 0.508789 9.72779 1.14583 11.0279 2.35973L9.47167 4.42946C8.40779 3.43434 6.98944 2.97684 5.70887 2.97684C4.44798 2.97684 3.77826 3.53398 3.77826 4.33003C3.77826 5.22551 4.88154 5.50407 6.39841 5.86235C8.56542 6.3599 11.3234 7.01667 11.3234 9.96195C11.3234 12.39 9.60957 14.221 6.06348 14.221C3.54184 14.221 1.72933 13.3651 0.488281 12.1114L2.02485 9.96195Z" fill="#7C7C7C"/>
<path d="M20.4299 2.99677C18.0069 2.99677 16.4505 4.86743 16.4505 7.35522C16.4505 9.82287 18.0069 11.7135 20.4299 11.7135C22.8531 11.7135 24.4293 9.82287 24.4293 7.35522C24.4293 4.86743 22.8531 2.99677 20.4299 2.99677ZM20.4299 0.489258C24.4094 0.489258 27.3055 3.35504 27.3055 7.35522C27.3055 11.3554 24.4094 14.2212 20.4299 14.2212C16.4702 14.2212 13.5742 11.3554 13.5742 7.35522C13.5742 3.35504 16.4702 0.489258 20.4299 0.489258Z" fill="#7C7C7C"/>
<path d="M29.6289 7.35522C29.6289 3.27554 32.6824 0.489258 36.5239 0.489258C39.5184 0.489258 41.1929 2.08136 42.1189 3.73304L39.7155 4.92721C39.1638 3.8526 37.9818 2.99677 36.5239 2.99677C34.2389 2.99677 32.5051 4.84771 32.5051 7.35522C32.5051 9.86272 34.2389 11.7137 36.5239 11.7137C37.9818 11.7137 39.1638 10.8778 39.7155 9.78322L42.1189 10.9573C41.1732 12.6091 39.5184 14.2212 36.5239 14.2212C32.6824 14.2212 29.6289 11.4349 29.6289 7.35522Z" fill="#7C7C7C"/>
<path d="M44.7812 0.708008H47.5787V13.9822H44.7812V0.708008Z" fill="#7C7C7C"/>
<path d="M54.4109 9.24578H58.7647L56.5976 3.15593L54.4109 9.24578ZM59.5331 11.6935H53.6623L52.8347 13.9822H49.7617L54.8442 0.708008H58.3509L63.4141 13.9822H60.3605L59.5331 11.6935Z" fill="#7C7C7C"/>
<path d="M65.625 0.708008H68.4227V11.4946H73.9779V13.9824H65.625V0.708008Z" fill="#7C7C7C"/>
<path d="M76.9141 0.708008H79.7115V11.4946H85.267V13.9824H76.9141V0.708008Z" fill="#7C7C7C"/>
<path d="M89.3638 8.54916L84.3008 0.708008H87.4923L90.7625 6.04165L93.9933 0.708008H97.185L92.1612 8.54916V13.9822H89.3638V8.54916Z" fill="#7C7C7C"/>
<path d="M6.57974 34.7134C9.18019 34.7134 10.6972 32.8226 10.6972 30.5739C10.6972 28.2254 9.27869 26.4143 6.57974 26.4143H4.19602V34.7134H6.57974ZM1.39844 23.9268H6.57974C10.6972 23.9268 13.5538 26.5735 13.5538 30.5739C13.5538 34.5741 10.6972 37.2012 6.57974 37.2012H1.39844V23.9268Z" fill="#7C7C7C"/>
<path d="M16.5273 23.9268H25.8259V26.3548H19.3248V29.2405H25.6881V31.6685H19.3248V34.7532H25.8259V37.2012H16.5273V23.9268Z" fill="#7C7C7C"/>
<path d="M29.6303 33.1819C30.5561 34.1571 31.9943 34.9731 33.8068 34.9731C35.3434 34.9731 36.0921 34.2366 36.0921 33.4804C36.0921 32.4853 34.9493 32.1469 33.4325 31.7886C31.2851 31.2913 28.5271 30.6941 28.5271 27.7287C28.5271 25.5197 30.4183 23.7285 33.5112 23.7285C35.5994 23.7285 37.3332 24.3654 38.6333 25.5793L37.077 27.6492C36.0132 26.6541 34.5947 26.1964 33.3143 26.1964C32.0535 26.1964 31.3837 26.7535 31.3837 27.5498C31.3837 28.4452 32.487 28.7238 34.0038 29.0821C36.1708 29.5796 38.9288 30.2364 38.9288 33.1819C38.9288 35.6097 37.2149 37.4407 33.6689 37.4407C31.1472 37.4407 29.3347 36.5849 28.0938 35.3311L29.6303 33.1819Z" fill="#7C7C7C"/>
<path d="M41.8047 23.9268H44.6021V37.201H41.8047V23.9268Z" fill="#7C7C7C"/>
<path d="M54.5522 23.707C57.271 23.707 58.9849 25.0405 59.9896 26.6127L57.6651 27.8863C57.0543 26.951 55.9315 26.2145 54.5522 26.2145C52.1686 26.2145 50.4349 28.0655 50.4349 30.573C50.4349 33.0805 52.1686 34.9314 54.5522 34.9314C55.7539 34.9314 56.818 34.4339 57.3891 33.9164V32.3046H53.8825V29.8766H60.1474V34.9514C58.8076 36.4638 56.9361 37.4589 54.5522 37.4589C50.7107 37.4589 47.5586 34.7523 47.5586 30.573C47.5586 26.374 50.7107 23.707 54.5522 23.707Z" fill="#7C7C7C"/>
<path d="M66.1568 28.2852V37.201H63.3594V23.9268H66.2357L72.3231 32.5241V23.9268H75.1206V37.201H72.4217L66.1568 28.2852Z" fill="#7C7C7C"/>
<path d="M4.64924 55.6833H9.00309L6.83594 49.5934L4.64924 55.6833ZM9.77145 58.1312H3.90058L3.07314 60.4197H0L5.08266 47.1455H8.58937L13.6523 60.4197H10.5988L9.77145 58.1312Z" fill="#7C7C7C"/>
<path d="M14.5586 53.7917C14.5586 49.7121 17.6122 46.9258 21.4539 46.9258C24.4481 46.9258 26.1228 48.5179 27.0486 50.1698L24.6452 51.3639C24.0935 50.2893 22.9118 49.4333 21.4539 49.4333C19.1685 49.4333 17.4348 51.2842 17.4348 53.7917C17.4348 56.2992 19.1685 58.1502 21.4539 58.1502C22.9118 58.1502 24.0935 57.3143 24.6452 56.2199L27.0486 57.394C26.1031 59.0459 24.4481 60.6577 21.4539 60.6577C17.6122 60.6577 14.5586 57.8716 14.5586 53.7917Z" fill="#7C7C7C"/>
<path d="M32.8212 55.6822H37.175L35.0079 49.5924L32.8212 55.6822ZM37.9434 58.1301H32.0725L31.2452 60.4187H28.172L33.2547 47.1445H36.7614L41.8242 60.4187H38.7707L37.9434 58.1301Z" fill="#7C7C7C"/>
<path d="M49.2126 57.9312C51.813 57.9312 53.3299 56.0404 53.3299 53.7915C53.3299 51.4432 51.9114 49.6321 49.2126 49.6321H46.8289V57.9312H49.2126ZM44.0312 47.1445H49.2126C53.3299 47.1445 56.1865 49.7913 56.1865 53.7915C56.1865 57.7919 53.3299 60.4187 49.2126 60.4187H44.0312V47.1445Z" fill="#7C7C7C"/>
<path d="M59.1602 47.1445H68.4588V49.5725H61.9576V52.4582H68.3211V54.8862H61.9576V57.971H68.4588V60.4187H59.1602V47.1445Z" fill="#7C7C7C"/>
<path d="M83.0591 50.8661L79.3554 60.4187H78.134L74.4305 50.8661V60.4187H71.6328V47.1445H75.5535L78.7448 55.4237L81.9361 47.1445H85.8763V60.4187H83.0591V50.8661Z" fill="#7C7C7C"/>
<path d="M93.1255 54.9856L88.0625 47.1445H91.254L94.5242 52.4781L97.7552 47.1445H100.947L95.9232 54.9856V60.4187H93.1255V54.9856Z" fill="#7C7C7C"/>
</g>
<defs>
<clipPath id="clip0_202_213">
<rect width="122" height="61" fill="white"/>
</clipPath>
</defs>
</svg>
