<svg width="148" height="69" viewBox="0 0 148 69" fill="none" xmlns="http://www.w3.org/2000/svg">
<g clip-path="url(#clip0_197_1046)">
<path d="M18.8327 10.6316C17.903 9.5793 17.1707 8.52518 16.2214 7.72881C14.3727 6.17874 11.0024 6.03653 9.207 7.27552C7.55382 8.41674 7.36184 10.8841 8.9688 12.0786C9.94648 12.8056 11.1179 13.3176 12.2663 13.7584C14.442 14.5939 16.68 15.2623 18.8594 16.0853C20.6512 16.7608 22.2688 17.8043 23.4136 19.3401C25.3956 22.0012 25.6054 25.0125 24.5815 28.0842C23.506 31.307 21.0263 33.1503 17.9066 34.064C13.8145 35.2621 9.72428 35.1306 5.82777 33.241C3.17381 31.954 1.28599 29.8795 0.109219 27.1616C-0.100538 26.6781 -0.0187681 26.4132 0.446964 26.1519C1.95615 25.3022 3.44045 24.4116 4.93719 23.5406C5.10606 23.4428 5.28916 23.3699 5.45092 23.2935C5.9362 24.0792 6.33439 24.8809 6.87656 25.5706C8.54573 27.6913 10.8548 28.3544 13.443 28.2886C14.6731 28.2566 15.8819 28.1179 16.9645 27.4513C18.8629 26.2852 19.1011 23.7024 17.2826 22.4225C16.1805 21.6475 14.8491 21.1639 13.571 20.6822C11.8698 20.0423 10.0745 19.6352 8.40174 18.9366C6.97966 18.3429 5.60202 17.5785 4.32925 16.7075C2.32411 15.3352 1.48508 13.2607 1.29133 10.8912C0.772266 4.52379 5.3016 0.863704 10.3713 0.145552C16.0241 -0.656148 21.0796 1.89116 23.8349 6.86845C24.1513 7.44084 24.0535 7.67193 23.4989 7.97234C21.8831 8.84692 20.3046 9.78905 18.8345 10.6334L18.8327 10.6316Z" fill="#7C7C7C"/>
<path d="M25.815 45.6104C27.7864 43.7581 29.9924 43.0826 32.4721 43.2053C34.991 43.3297 37.037 44.3625 38.5942 46.4956C38.9853 46.0708 39.2821 45.6761 39.6465 45.3633C42.5191 42.9031 45.8059 42.5991 49.2065 43.8559C52.4968 45.0735 54.1269 47.715 54.598 51.1103C54.7046 51.8764 54.7242 52.6603 54.7277 53.4354C54.7402 57.7656 54.7348 62.0976 54.7331 66.4279C54.7331 67.4322 54.6282 67.5353 53.6292 67.5389C52.6746 67.5424 51.7182 67.5407 50.7637 67.5389C49.6793 67.5371 49.6189 67.4802 49.6189 66.419C49.6189 62.1776 49.6385 57.9345 49.6029 53.6931C49.594 52.751 49.5371 51.7555 49.2349 50.8774C48.2715 48.0812 44.5776 47.212 42.2027 49.1336C41.3299 49.8393 40.8055 50.7476 40.5922 51.8177C40.4287 52.6408 40.3149 53.4887 40.3096 54.3259C40.2811 58.3682 40.2971 62.4105 40.2954 66.4528C40.2954 67.434 40.194 67.5353 39.2377 67.5407C38.2156 67.5442 37.1952 67.546 36.1731 67.5407C35.2914 67.5353 35.1634 67.4127 35.1634 66.5399C35.1599 62.1652 35.1794 57.7887 35.1474 53.414C35.1403 52.5572 35.0621 51.6684 34.815 50.8543C34.1537 48.6625 31.914 47.6404 29.5338 48.3479C27.2709 49.0216 25.9448 50.8312 25.8523 53.5598C25.7795 55.7338 25.8221 57.9114 25.8168 60.0889C25.8132 62.2647 25.8186 64.4423 25.8132 66.6181C25.8115 67.3896 25.6746 67.5335 24.9369 67.5407C23.8045 67.5513 22.6704 67.53 21.5381 67.5478C20.9159 67.5584 20.6297 67.2865 20.6582 66.6696C20.6635 66.5363 20.6582 66.403 20.6582 66.2697C20.6582 59.1841 20.6582 52.1004 20.6582 45.0149C20.6582 43.8452 20.7026 43.8025 21.8421 43.8008C22.8411 43.8008 23.8401 43.799 24.8409 43.8008C25.7137 43.8043 25.8043 43.8932 25.8168 44.7411C25.8203 44.9615 25.8168 45.1802 25.8168 45.6139L25.815 45.6104Z" fill="#7C7C7C"/>
<path d="M103.829 64.9375C103.135 65.4939 102.597 65.9881 101.998 66.3934C100.275 67.563 98.3661 68.0181 96.2738 68.0501C93.867 68.0874 91.6379 67.6572 89.6238 66.3169C84.9772 63.2257 83.1249 58.2715 84.1844 52.8694C84.8492 49.483 86.7637 46.9268 89.5883 45.023C93.5257 42.3708 99.9393 42.497 103.4 46.0789C103.486 46.166 103.601 46.2247 103.825 46.3846C103.825 46.0274 103.825 45.7945 103.825 45.5616C103.825 43.6525 103.843 41.7415 103.814 39.8324C103.806 39.2956 103.982 39.1427 104.499 39.1551C105.72 39.1871 106.943 39.2031 108.162 39.1498C108.84 39.1196 108.959 39.3809 108.955 39.9924C108.93 44.1004 108.943 48.2085 108.943 52.3165C108.943 57.0023 108.943 61.688 108.943 66.3738C108.943 67.4653 108.872 67.5346 107.759 67.5364C106.737 67.5364 105.716 67.5239 104.694 67.5399C104.076 67.5506 103.793 67.2928 103.822 66.6636C103.846 66.1356 103.827 65.6041 103.827 64.9375H103.829ZM96.4125 48.2049C92.2209 48.1942 89.0337 51.3762 89.0212 55.5837C89.0088 59.7913 92.1676 63.1226 96.185 63.1368C100.601 63.151 103.814 59.9993 103.82 55.646C103.825 51.4028 100.654 48.2174 96.4125 48.2067V48.2049Z" fill="#7C7C7C"/>
<path d="M108.331 34.7961C101.475 35.0041 95.6922 29.1558 95.7188 22.1111C95.7437 15.5767 101.061 9.5008 108.374 9.57191C115.525 9.64123 120.977 15.0985 121.03 22.1876C121.083 29.282 115.159 35.0183 108.331 34.7979V34.7961ZM101.967 22.1556C101.971 25.9934 104.666 28.7558 108.391 28.7451C112.078 28.7345 114.862 25.8743 114.837 22.1236C114.812 18.3924 112.06 15.6673 108.327 15.6709C104.616 15.6744 101.964 18.3799 101.967 22.1556Z" fill="#7C7C7C"/>
<path d="M142.041 65.0933C140.62 66.5136 138.951 67.5073 136.974 67.8592C129.967 69.1124 124.574 65.335 122.818 59.2254C121.664 55.2116 122.288 51.3506 124.86 47.9234C128.796 42.683 135.707 41.9542 140.275 44.7859C140.912 45.1806 141.475 45.6907 142.225 46.2649C142.225 45.6907 142.218 45.2268 142.225 44.7628C142.241 43.9113 142.353 43.7976 143.187 43.7958C144.275 43.7922 145.363 43.7922 146.453 43.7958C147.318 43.7994 147.4 43.8776 147.4 44.7557C147.402 50.0405 147.4 55.3271 147.4 60.6119C147.4 62.61 147.402 64.6098 147.4 66.6078C147.398 67.4219 147.29 67.5286 146.472 67.5339C145.361 67.5393 144.25 67.5073 143.141 67.5446C142.462 67.5677 142.218 67.2531 142.225 66.6327C142.231 66.1332 142.225 65.6337 142.225 65.1342C142.163 65.1199 142.101 65.1057 142.039 65.0915L142.041 65.0933ZM142.224 55.656C142.222 51.3666 139.108 48.2896 134.859 48.2114C131.238 48.1438 127.5 50.9471 127.461 55.6542C127.425 59.8404 130.689 63.1006 134.857 63.0899C139.1 63.0792 142.225 59.9258 142.224 55.656Z" fill="#7C7C7C"/>
<path d="M63.0006 58.0747C63.4024 59.5981 64.1667 60.7073 65.2546 61.6014C67.4837 63.4341 71.7233 63.7932 74.1889 62.2645C74.939 61.7987 75.5576 61.0877 76.1567 60.4175C76.5477 59.9802 76.8695 59.8203 77.4028 60.1384C78.336 60.6966 79.2959 61.2103 80.2363 61.7578C80.9153 62.1543 80.9455 62.3605 80.4834 63.0217C78.1938 66.2925 75.0634 67.9492 71.0603 68.0221C68.8169 68.063 66.6109 67.9741 64.556 66.9573C60.0765 64.7424 57.7958 61.0895 57.6091 56.13C57.4669 52.3223 58.6384 48.9947 61.4701 46.3567C64.2947 43.7241 67.7095 42.917 71.4549 43.2743C77.545 43.8556 81.7632 49.4053 81.813 55.3176C81.8183 55.8722 81.7988 56.4286 81.7472 56.9796C81.6548 57.9804 81.5464 58.0693 80.5633 58.0747C79.5412 58.0782 78.5209 58.0747 77.4988 58.0747C72.9908 58.0747 68.481 58.0747 63.973 58.0747H63.0006ZM76.3771 53.396C76.194 50.7936 73.5987 48.1538 70.0808 48.0987C66.0083 48.0347 63.3597 50.8309 63.0788 53.396H76.3753H76.3771Z" fill="#7C7C7C"/>
<path d="M131.531 12.5277C134.049 9.75281 137.153 9.16265 140.554 9.80436C144.169 10.4852 146.377 12.7801 147.248 16.3086C147.533 17.4587 147.625 18.6782 147.636 19.8692C147.678 24.3558 147.641 28.8425 147.666 33.3274C147.669 33.9567 147.511 34.1789 146.854 34.1593C145.3 34.1131 143.745 34.1202 142.191 34.1575C141.594 34.1718 141.393 34.0153 141.398 33.3843C141.427 29.054 141.418 24.722 141.409 20.3918C141.407 19.2026 141.256 18.0364 140.492 17.0552C139.491 15.7718 138.117 15.3096 136.549 15.3878C133.594 15.5354 131.868 17.1583 131.627 20.1127C131.497 21.7019 131.541 23.307 131.534 24.9051C131.522 27.7475 131.518 30.5917 131.541 33.4341C131.545 33.978 131.394 34.1682 130.83 34.1575C129.188 34.1238 127.543 34.1344 125.899 34.154C125.448 34.1593 125.273 34.0242 125.273 33.5496C125.284 25.9752 125.282 18.4026 125.275 10.8283C125.275 10.4159 125.389 10.2239 125.839 10.2274C127.549 10.2452 129.259 10.2452 130.969 10.2274C131.419 10.2221 131.55 10.4052 131.534 10.8212C131.513 11.39 131.529 11.9588 131.529 12.5277H131.531Z" fill="#7C7C7C"/>
<path d="M44.7825 31.6717C44.1941 32.2298 43.7426 32.7507 43.204 33.156C41.2877 34.5976 39.0657 34.9265 36.7548 34.7345C32.149 34.3487 28.88 30.8789 28.7432 25.9833C28.6009 20.9243 28.6898 15.8581 28.6667 10.7955C28.6649 10.3458 28.8516 10.2338 29.2658 10.2373C30.8869 10.2533 32.5081 10.2693 34.1293 10.2302C34.7248 10.216 34.8812 10.4115 34.8794 10.9892C34.8581 15.2093 34.8439 19.4275 34.8866 23.6476C34.8954 24.5861 34.9897 25.5798 35.3096 26.4508C35.9478 28.1929 37.8125 29.183 39.7821 29.0248C42.8627 28.7777 44.6918 26.9415 44.7434 23.8467C44.8145 19.6071 44.7754 15.3639 44.7843 11.1226C44.7843 10.5407 45.0734 10.2492 45.6517 10.248C47.2053 10.248 48.7608 10.264 50.3144 10.2391C50.8139 10.232 51.0148 10.3546 51.013 10.9021C50.997 18.4303 50.9988 25.9584 51.0112 33.4866C51.0112 33.9648 50.8921 34.1568 50.3784 34.1479C48.7128 34.1194 47.0471 34.1248 45.3815 34.1461C44.9105 34.1514 44.7523 33.9861 44.7754 33.5275C44.8056 32.9409 44.7825 32.3525 44.7825 31.6752V31.6717Z" fill="#7C7C7C"/>
<path d="M83.3042 26.9211C82.7211 27.7281 82.2145 28.4249 81.7132 29.1253C80.6396 30.6238 79.5623 32.1205 78.5046 33.6297C78.2504 33.9924 77.9731 34.1506 77.5163 34.1452C75.4081 34.1204 73.3016 34.1346 71.0352 34.1346C71.2147 33.8395 71.316 33.6404 71.4458 33.4609C74.0624 29.8168 76.6737 26.1674 79.3152 22.541C79.6388 22.0949 79.6157 21.8122 79.3081 21.3838C76.8408 17.9602 74.3966 14.5187 71.9471 11.0826C71.7871 10.8569 71.6395 10.6222 71.3889 10.2454C71.7942 10.2454 72.0271 10.2454 72.2599 10.2454C74.082 10.2454 75.904 10.2667 77.7243 10.2329C78.2949 10.2222 78.654 10.384 78.9864 10.8675C80.2325 12.6789 81.5301 14.4547 82.8118 16.243C82.9504 16.4367 83.0998 16.6198 83.3042 16.8847C83.5015 16.6358 83.6561 16.4581 83.793 16.2697C85.1156 14.4316 86.4274 12.5829 87.7695 10.7591C87.9437 10.5227 88.2761 10.2631 88.5392 10.2578C90.6261 10.2187 92.7148 10.2382 94.8035 10.2436C94.8835 10.2436 94.9635 10.2827 95.1412 10.3271C94.9706 10.592 94.8426 10.8124 94.6951 11.0186C92.2349 14.4441 89.7782 17.8748 87.2985 21.2861C86.9714 21.7358 86.95 22.038 87.286 22.5019C89.8404 26.0251 92.3664 29.5679 94.9013 33.1053C95.1057 33.3915 95.3066 33.6813 95.5928 34.0866C95.2746 34.1132 95.0719 34.1452 94.8693 34.1452C92.937 34.1488 91.003 34.131 89.0707 34.1595C88.6068 34.1666 88.3455 33.9924 88.0966 33.6351C86.6941 31.6335 85.2755 29.6461 83.8588 27.6552C83.7077 27.4419 83.5442 27.2357 83.3077 26.9246L83.3042 26.9211Z" fill="#7C7C7C"/>
<path d="M62.6982 13.9291C63.2599 13.1897 63.6617 12.5231 64.1932 11.9862C65.617 10.5446 67.4106 9.91886 69.4087 9.79621C69.8069 9.77132 69.9686 9.88509 69.9651 10.3046C69.9508 12.2369 69.9508 14.1673 69.9651 16.0996C69.9686 16.5422 69.8033 16.6826 69.3713 16.6524C68.2035 16.5742 67.0765 16.7395 65.9939 17.2213C63.6794 18.2505 62.7267 20.1188 62.7107 22.5416C62.6875 26.0933 62.7018 29.6467 62.6982 33.1984C62.6982 33.481 62.6982 33.7636 62.6982 34.1334H61.8965C60.4318 34.1334 58.9652 34.1334 57.5005 34.1334C56.8392 34.1334 56.5086 33.7915 56.5086 33.1077C56.5086 29.5561 56.5086 26.0026 56.5086 22.451C56.5086 18.654 56.521 14.8588 56.4962 11.0619C56.4926 10.4344 56.649 10.2086 57.3085 10.2282C58.8835 10.2744 60.462 10.2637 62.0369 10.2317C62.5756 10.2211 62.7249 10.4113 62.7089 10.9214C62.6769 11.8831 62.7 12.8466 62.7 13.9291H62.6982Z" fill="#7C7C7C"/>
<path d="M113.847 47.3457C115.477 48.1474 117.125 48.1563 118.863 47.6923C118.876 47.9874 118.895 48.2221 118.895 48.4585C118.895 54.4508 118.897 60.4431 118.895 66.4372C118.895 67.438 118.796 67.5339 117.784 67.5375C116.72 67.5411 115.653 67.5304 114.588 67.5393C114.046 67.5446 113.762 67.3313 113.762 66.7554C113.769 60.3862 113.767 54.0153 113.771 47.6461C113.771 47.5821 113.801 47.5199 113.845 47.3475L113.847 47.3457Z" fill="#7C7C7C"/>
<path d="M116.693 39.0164C118.474 39.0129 119.804 40.3479 119.797 42.1326C119.791 43.864 118.442 45.2025 116.704 45.2007C114.97 45.2007 113.532 43.7715 113.559 42.0757C113.586 40.3816 114.981 39.0164 116.693 39.0146V39.0164Z" fill="#7C7C7C"/>
</g>
<defs>
<clipPath id="clip0_197_1046">
<rect width="147.664" height="68.1" fill="white"/>
</clipPath>
</defs>
</svg>
