<svg width="190" height="86" viewBox="0 0 190 86" fill="none" xmlns="http://www.w3.org/2000/svg">
<g filter="url(#filter0_d_202_161)">
<g clip-path="url(#clip0_202_161)">
<path d="M90.8164 21.1676C90.8164 9.47791 100.293 0 111.984 0V8.34523C104.903 8.34523 99.1604 14.0865 99.1604 21.1676H90.8176H90.8164Z" fill="#7C7C7C"/>
<path d="M99.1585 21.1676C99.1585 9.47791 89.6818 0 77.9922 0V8.34523C85.0732 8.34523 90.8157 14.0865 90.8157 21.1676H99.1585Z" fill="#7C7C7C"/>
<path d="M21.2495 39.4807C21.2495 39.8741 20.5967 41.0202 19.2911 42.9214C17.4435 45.6081 16.2377 47.4338 15.675 48.3996C14.3694 50.6186 13.7166 52.3079 13.7166 53.4637C13.7166 55.6511 13.7909 57.9018 13.9395 60.2171H10.8813C11.0189 58.0188 11.0883 55.7571 11.0883 53.4321C11.0883 52.1581 10.4782 50.3897 9.25657 48.128C8.56601 46.865 7.42481 45.0381 5.83176 42.6485C4.61018 40.8009 4 39.745 4 39.4795H7.26648C7.26648 39.756 8.18236 41.4464 10.0141 44.5522C11.8459 47.6579 12.7618 49.7101 12.7618 50.7076H12.9213C12.9213 49.6991 13.7946 47.6822 15.5411 44.6557C17.2876 41.6304 18.1608 39.9045 18.1608 39.4795H21.2507L21.2495 39.4807Z" fill="#7C7C7C"/>
<path d="M44.4857 39.4814C44.4431 41.4886 44.4114 43.363 44.3907 45.1034C44.3688 46.845 44.359 48.4697 44.359 49.9775C44.359 57.0914 41.5505 60.6478 35.9334 60.6478C34.4683 60.6478 33.2126 60.4383 32.1664 60.0193C31.1202 59.6004 30.2603 58.9573 29.5856 58.0926C28.9109 57.2266 28.4176 56.1366 28.1046 54.82C27.7916 53.5034 27.6345 51.9481 27.6345 50.1541C27.6345 48.583 27.6235 46.9132 27.6028 45.1448C27.5809 43.3776 27.5492 41.4898 27.5078 39.4827H30.5344C30.4065 43.5274 30.3431 46.6977 30.3431 48.991C30.3431 50.8386 30.4333 52.344 30.6135 53.5059C30.7938 54.6678 31.1153 55.6372 31.5769 56.4118C32.0385 57.1877 32.6207 57.7369 33.321 58.0609C34.0213 58.3849 34.914 58.5469 35.9968 58.5469C37.1331 58.5469 38.0563 58.3849 38.7675 58.0609C39.4788 57.7369 40.0573 57.2011 40.5031 56.452C40.9489 55.703 41.2679 54.7421 41.4592 53.5692C41.6504 52.3963 41.7454 50.8593 41.7454 48.9581C41.7454 47.8328 41.7271 46.487 41.6894 44.9207C41.6516 43.3544 41.5968 41.5422 41.5225 39.4814H44.4845H44.4857Z" fill="#7C7C7C"/>
<path d="M69.3425 60.2174H65.8544C65.8544 60.1005 65.2491 59.1773 64.0385 57.4466C62.6366 55.4394 61.3578 53.7831 60.1995 52.4774C58.6284 50.7041 57.4653 49.8175 56.7114 49.8175H56.2181C56.2181 52.3021 56.2705 55.7683 56.3777 60.2174H53.3828C53.5424 56.9253 53.6215 53.2947 53.6215 49.323C53.6215 45.5852 53.5424 42.3053 53.3828 39.4797H56.3777C56.2717 42.3041 56.2181 45.1711 56.2181 48.0795H56.5847C57.1681 48.0795 58.626 46.7264 60.9571 44.0177C63.287 41.3103 64.4526 39.7976 64.4526 39.4785H67.7653C67.7653 39.7976 66.6314 41.1105 64.3649 43.4197C62.0983 45.7289 60.4127 47.2818 59.308 48.0783V48.2378C60.5284 48.7055 62.5623 50.8125 65.4074 54.5613C68.0296 58.0117 69.3413 59.8971 69.3413 60.2149L69.3425 60.2174Z" fill="#7C7C7C"/>
<path d="M88.0539 54.8513C88.0539 58.7803 85.3197 60.7448 79.8512 60.7448C77.855 60.7448 76.0817 60.5159 74.5312 60.0604L75.0891 57.5599C76.8733 58.1762 78.5662 58.4844 80.1703 58.4844C83.7802 58.4844 85.5852 57.4649 85.5852 55.4261C85.5852 54.397 85.1175 53.5152 84.1833 52.782C83.5561 52.2936 82.3248 51.6408 80.4881 50.8236C78.5553 49.9637 77.2022 49.1733 76.4263 48.4511C75.3534 47.4536 74.8175 46.2003 74.8175 44.6926C74.8175 43.1848 75.3643 41.8414 76.458 40.8536C77.6784 39.7502 79.4042 39.1973 81.6342 39.1973C84.1614 39.1973 85.8921 39.3617 86.8262 39.6905L86.4438 42.2226C84.83 41.7135 83.1152 41.4577 81.2993 41.4577C78.5699 41.4577 77.2058 42.3712 77.2058 44.1969C77.2058 45.0786 77.598 45.8167 78.3848 46.411C78.8939 46.7825 80.0192 47.3452 81.7609 48.0991C83.7461 48.9589 85.1796 49.7774 86.0614 50.552C87.3889 51.72 88.0527 53.1535 88.0527 54.8525L88.0539 54.8513Z" fill="#7C7C7C"/>
<path d="M108.901 49.8801C106.29 43.5737 104.982 40.1087 104.982 39.4814H101.286C101.286 40.1196 99.9175 43.6346 97.1784 50.0348C94.438 56.4313 93.0703 59.8245 93.0703 60.2191H96.6717C96.6717 59.4567 97.3221 57.2352 98.6302 53.557C98.6302 53.557 102.799 41.8186 102.799 41.4886H102.976C102.976 41.8832 107.068 53.5156 107.068 53.5156L107.081 53.5546C108.408 57.2875 109.075 59.5127 109.075 60.2203H112.818C112.818 59.6369 111.513 56.1926 108.902 49.8825L108.901 49.8801Z" fill="#7C7C7C"/>
<path d="M131.876 57.8763L131.781 60.2171H119.246C119.374 57.5949 119.437 53.9631 119.437 49.3228C119.437 45.3304 119.374 42.0493 119.246 39.4795H122.208C122.08 41.6243 122.017 44.9054 122.017 49.3228C122.017 52.9534 121.958 55.863 121.841 58.0504C125.026 58.0504 128.372 57.992 131.875 57.8751L131.876 57.8763Z" fill="#7C7C7C"/>
<path d="M141.511 60.2171H138.484C138.644 56.7765 138.723 53.1458 138.723 49.3228C138.723 45.4997 138.644 42.2832 138.484 39.4795H141.511C141.362 42.3782 141.288 45.6593 141.288 49.3228C141.288 53.1666 141.362 56.7972 141.511 60.2171Z" fill="#7C7C7C"/>
<path d="M162.866 54.8513C162.866 58.7803 160.132 60.7448 154.664 60.7448C152.667 60.7448 150.894 60.5159 149.344 60.0604L149.902 57.5599C151.686 58.1762 153.379 58.4844 154.983 58.4844C158.593 58.4844 160.398 57.4649 160.398 55.4261C160.398 54.397 159.93 53.5152 158.996 52.782C158.369 52.2936 157.137 51.6408 155.301 50.8236C153.368 49.9637 152.015 49.1733 151.239 48.4511C150.166 47.4536 149.63 46.2003 149.63 44.6926C149.63 43.1848 150.177 41.8414 151.271 40.8536C152.491 39.7502 154.217 39.1973 156.447 39.1973C158.974 39.1973 160.705 39.3617 161.639 39.6905L161.256 42.2226C159.643 41.7135 157.928 41.4577 156.112 41.4577C153.382 41.4577 152.018 42.3712 152.018 44.1969C152.018 45.0786 152.41 45.8167 153.197 46.411C153.706 46.7825 154.832 47.3452 156.573 48.0991C158.559 48.9589 159.992 49.7774 160.874 50.552C162.201 51.72 162.865 53.1535 162.865 54.8525L162.866 54.8513Z" fill="#7C7C7C"/>
<path d="M185.973 60.2171H182.947C183.053 56.5439 183.106 53.2518 183.106 50.3422H173.566C173.566 52.7001 173.619 55.9909 173.726 60.2171H170.699C170.848 56.3417 170.922 52.7098 170.922 49.3228C170.922 45.9357 170.848 42.4951 170.699 39.4795H173.726C173.598 42.5158 173.535 45.468 173.535 48.335H183.138C183.138 46.0307 183.075 43.0797 182.947 39.4795H185.973C185.814 42.4317 185.735 45.7128 185.735 49.3228C185.735 53.2835 185.814 56.9141 185.973 60.2171Z" fill="#7C7C7C"/>
<path d="M51.0027 77.4099L50.9845 77.8422H48.668C48.6911 77.3575 48.7033 76.6864 48.7033 75.829C48.7033 75.0909 48.6911 74.4856 48.668 74.0106H49.2148C49.1917 74.4077 49.1795 75.013 49.1795 75.829C49.1795 76.5001 49.1685 77.0372 49.1466 77.4415C49.7349 77.4415 50.3536 77.4306 51.0003 77.4086L51.0027 77.4099Z" fill="#7C7C7C"/>
<path d="M57.0224 77.3978L57.0041 77.8423H54.6328C54.6608 77.2346 54.6742 76.5635 54.6742 75.8291C54.6742 75.1385 54.6608 74.532 54.6328 74.0107H56.858L56.8348 74.4492C56.2953 74.4261 55.7229 74.4139 55.1188 74.4139C55.1309 74.7184 55.1358 75.1288 55.1358 75.6464C55.6571 75.6464 56.1223 75.6355 56.5303 75.6111V76.0496C56.0943 76.0325 55.6303 76.0228 55.1358 76.0228C55.1358 76.527 55.1443 76.9995 55.1626 77.4416C55.8142 77.4416 56.4341 77.427 57.0224 77.3978Z" fill="#7C7C7C"/>
<path d="M63.9145 77.8423H63.2934C63.2934 77.7108 63.1704 77.2979 62.9231 76.6037H61.2254C60.9818 77.2882 60.86 77.7011 60.86 77.8423H60.2656C60.2656 77.7693 60.519 77.142 61.0244 75.9606C61.5311 74.7793 61.7832 74.1289 61.7832 74.0107H62.4664C62.4664 74.1264 62.7076 74.7671 63.1899 75.9326C63.6722 77.0982 63.9133 77.7339 63.9133 77.8423H63.9145ZM62.788 76.2176C62.3264 75.0655 62.0962 74.4541 62.0962 74.381H62.0633C62.0633 74.4419 61.8246 75.0533 61.3484 76.2176H62.788Z" fill="#7C7C7C"/>
<path d="M70.5383 75.7884C70.5383 76.345 70.3605 76.8346 70.0048 77.2536C69.6492 77.6737 69.1571 77.8832 68.5323 77.8832C68.3277 77.8832 67.9879 77.8698 67.5117 77.8418C67.5409 77.2341 67.5556 76.563 67.5556 75.8286C67.5556 75.138 67.5409 74.5315 67.5117 74.0102H67.8357C67.9136 74.0102 68.0342 74.0078 68.195 74.0017C68.3557 73.9956 68.4617 73.9932 68.5129 73.9932C69.2059 73.9932 69.7162 74.1637 70.0462 74.5035C70.3763 74.8433 70.5407 75.272 70.5407 75.7884H70.5383ZM70.0267 75.9211C70.0267 75.4851 69.8879 75.121 69.6102 74.8287C69.3325 74.5364 68.9038 74.3902 68.3229 74.3902C68.24 74.3902 68.128 74.4 67.9843 74.4194C68.0001 74.8762 68.0074 75.3463 68.0074 75.8286C68.0074 76.3584 68.0184 76.8955 68.0403 77.4411C68.1974 77.4728 68.3484 77.4886 68.4934 77.4886C69.011 77.4886 69.3959 77.3352 69.648 77.0282C69.9001 76.7213 70.0255 76.3523 70.0255 75.9199L70.0267 75.9211Z" fill="#7C7C7C"/>
<path d="M76.7868 77.3978L76.7697 77.8423H74.3984C74.4252 77.2346 74.4398 76.5635 74.4398 75.8291C74.4398 75.1385 74.4264 74.532 74.3984 74.0107H76.6236L76.6004 74.4492C76.0609 74.4261 75.4885 74.4139 74.8844 74.4139C74.8966 74.7184 74.9014 75.1288 74.9014 75.6464C75.4239 75.6464 75.888 75.6355 76.296 75.6111V76.0496C75.8599 76.0325 75.3959 76.0228 74.9014 76.0228C74.9014 76.527 74.91 76.9995 74.9282 77.4416C75.5798 77.4416 76.1998 77.427 76.788 77.3978H76.7868Z" fill="#7C7C7C"/>
<path d="M83.448 77.8418H82.8804C82.6916 77.2791 82.5552 76.9065 82.4688 76.7238C82.3591 76.4936 82.2337 76.3462 82.0949 76.2792C81.9852 76.2268 81.7879 76.2 81.5029 76.2C81.3361 76.2 81.1875 76.2025 81.0584 76.2061C81.0584 76.8395 81.0706 77.3851 81.0937 77.8418H80.5469C80.5761 77.2341 80.5907 76.563 80.5907 75.8286C80.5907 75.138 80.5761 74.5315 80.5469 74.0102H80.9622C81.0511 74.0102 81.1619 74.0078 81.2971 74.0017C81.4323 73.9956 81.587 73.9932 81.7624 73.9932C82.621 73.9932 83.0509 74.2891 83.0509 74.8823C83.0509 75.3743 82.8098 75.7214 82.3275 75.9211V75.9504C82.5431 76.0149 82.7184 76.1647 82.8512 76.401C82.9632 76.5971 83.1618 77.0782 83.448 77.843V77.8418ZM82.5479 75.082C82.5479 74.6155 82.2325 74.3817 81.6004 74.3817C81.3751 74.3817 81.1851 74.3939 81.0328 74.4194C81.0462 74.7605 81.0535 75.2245 81.0535 75.8115C81.1717 75.8152 81.2837 75.8176 81.3921 75.8176C82.1631 75.8176 82.5491 75.5728 82.5491 75.082H82.5479Z" fill="#7C7C7C"/>
<path d="M89.4472 76.8503C89.4472 77.5762 88.9417 77.9392 87.9321 77.9392C87.5631 77.9392 87.2354 77.8965 86.9492 77.8125L87.0527 77.3509C87.3828 77.4642 87.6946 77.5214 87.9918 77.5214C88.6592 77.5214 88.9917 77.3326 88.9917 76.9563C88.9917 76.7663 88.9052 76.6031 88.7323 76.4679C88.6166 76.3778 88.3888 76.2572 88.049 76.1062C87.6922 75.9479 87.4413 75.8005 87.2988 75.6677C87.1002 75.4838 87.0016 75.2524 87.0016 74.9735C87.0016 74.6946 87.1027 74.4462 87.3049 74.2647C87.5302 74.0601 87.8493 73.959 88.2609 73.959C88.7274 73.959 89.0477 73.9894 89.2206 74.0503L89.15 74.518C88.8516 74.4242 88.535 74.3767 88.2 74.3767C87.6958 74.3767 87.4437 74.5448 87.4437 74.8822C87.4437 75.0454 87.5168 75.1818 87.6617 75.2914C87.7555 75.3608 87.9637 75.4643 88.2853 75.6032C88.6519 75.7615 88.9174 75.9125 89.0794 76.0563C89.3242 76.2718 89.4472 76.5373 89.4472 76.8516V76.8503Z" fill="#7C7C7C"/>
<path d="M100.752 77.8423H100.131C100.131 77.7108 100.006 77.2979 99.7591 76.6037H98.0613C97.8177 77.2882 97.6959 77.7011 97.6959 77.8423H97.1016C97.1016 77.7693 97.3549 77.142 97.8603 75.9606C98.367 74.7793 98.6191 74.1289 98.6191 74.0107H99.3024C99.3024 74.1264 99.5435 74.7671 100.026 75.9326C100.508 77.0982 100.749 77.7339 100.749 77.8423H100.752ZM99.6251 76.2176C99.1647 75.0655 98.9333 74.4541 98.9333 74.381H98.9004C98.9004 74.4419 98.6617 75.0533 98.1855 76.2176H99.6251Z" fill="#7C7C7C"/>
<path d="M106.947 77.3745L106.909 77.813C106.668 77.8861 106.405 77.9214 106.12 77.9214C105.445 77.9214 104.938 77.7363 104.599 77.366C104.259 76.9958 104.09 76.5451 104.09 76.0117C104.09 75.4782 104.279 74.9703 104.657 74.5648C105.036 74.1592 105.545 73.957 106.185 73.957C106.361 73.957 106.548 73.9838 106.744 74.0362L106.661 74.5039C106.436 74.4332 106.235 74.3979 106.058 74.3979C105.583 74.3979 105.224 74.5453 104.978 74.8388C104.733 75.1335 104.61 75.4928 104.61 75.9191C104.61 76.3454 104.751 76.7242 105.034 77.0347C105.316 77.3453 105.706 77.5 106.205 77.5C106.395 77.5 106.643 77.4574 106.947 77.3733V77.3745Z" fill="#7C7C7C"/>
<path d="M113.806 77.8423H113.185C113.185 77.7108 113.061 77.2979 112.814 76.6037H111.116C110.872 77.2882 110.751 77.7011 110.751 77.8423H110.156C110.156 77.7693 110.41 77.142 110.915 75.9606C111.422 74.7793 111.674 74.1289 111.674 74.0107H112.357C112.357 74.1264 112.598 74.7671 113.08 75.9326C113.563 77.0982 113.804 77.7339 113.804 77.8423H113.806ZM112.68 76.2176C112.219 75.0655 111.988 74.4541 111.988 74.381H111.955C111.955 74.4419 111.716 75.0533 111.24 76.2176H112.68Z" fill="#7C7C7C"/>
<path d="M120.433 75.7884C120.433 76.345 120.255 76.8346 119.899 77.2536C119.544 77.6737 119.052 77.8832 118.427 77.8832C118.222 77.8832 117.882 77.8698 117.406 77.8418C117.435 77.2341 117.45 76.563 117.45 75.8286C117.45 75.138 117.435 74.5315 117.406 74.0102H117.73C117.808 74.0102 117.929 74.0078 118.09 74.0017C118.25 73.9956 118.356 73.9932 118.407 73.9932C119.1 73.9932 119.611 74.1637 119.941 74.5035C120.271 74.8433 120.435 75.272 120.435 75.7884H120.433ZM119.921 75.9211C119.921 75.4851 119.782 75.121 119.505 74.8287C119.227 74.5364 118.798 74.3902 118.217 74.3902C118.135 74.3902 118.023 74.4 117.879 74.4194C117.895 74.8762 117.902 75.3463 117.902 75.8286C117.902 76.3584 117.913 76.8955 117.935 77.4411C118.092 77.4728 118.243 77.4886 118.388 77.4886C118.906 77.4886 119.29 77.3352 119.542 77.0282C119.795 76.7213 119.92 76.3523 119.92 75.9199L119.921 75.9211Z" fill="#7C7C7C"/>
<path d="M126.681 77.3978L126.664 77.8423H124.293C124.32 77.2346 124.334 76.5635 124.334 75.8291C124.334 75.1385 124.321 74.532 124.293 74.0107H126.518L126.495 74.4492C125.955 74.4261 125.383 74.4139 124.779 74.4139C124.791 74.7184 124.796 75.1288 124.796 75.6464C125.318 75.6464 125.782 75.6355 126.191 75.6111V76.0496C125.754 76.0325 125.29 76.0228 124.796 76.0228C124.796 76.527 124.805 76.9995 124.823 77.4416C125.474 77.4416 126.094 77.427 126.683 77.3978H126.681Z" fill="#7C7C7C"/>
<path d="M134.545 77.8426H133.992C133.992 77.4053 133.961 76.772 133.901 75.9438C133.84 75.1156 133.807 74.62 133.803 74.4555H133.774C133.578 75.0937 133.329 75.7855 133.028 76.5321C132.728 77.2787 132.577 77.7159 132.577 77.8426H132.18C132.18 77.705 132.04 77.2604 131.758 76.5077C131.478 75.7551 131.3 75.2521 131.226 74.9963C131.152 74.7405 131.1 74.5603 131.072 74.4543H131.043C131.037 74.7235 130.998 75.2654 130.926 76.0815C130.854 76.8975 130.819 77.4845 130.819 77.8414H130.312C130.312 77.8219 130.379 77.2811 130.512 76.2215C130.646 75.1607 130.712 74.4239 130.712 74.0098H131.485C131.485 74.2253 131.642 74.7649 131.957 75.6284C132.271 76.4919 132.428 77.0144 132.428 77.1971H132.457C132.457 77.0144 132.634 76.4907 132.987 75.6247C133.34 74.7588 133.517 74.2205 133.517 74.011H134.273C134.273 74.4251 134.318 75.1583 134.408 76.2118C134.499 77.2653 134.544 77.8085 134.544 77.8426H134.545Z" fill="#7C7C7C"/>
<path d="M141.298 74.0107C141.298 74.0838 141.177 74.2957 140.936 74.6465C140.595 75.1422 140.372 75.4808 140.268 75.6586C140.026 76.069 139.906 76.3808 139.906 76.594C139.906 76.9983 139.919 77.4136 139.947 77.8411H139.382C139.408 77.4343 139.42 77.0166 139.42 76.5879C139.42 76.3528 139.307 76.0264 139.081 75.6087C138.953 75.3748 138.743 75.0375 138.448 74.5966C138.223 74.2555 138.109 74.0595 138.109 74.0107H138.712C138.712 74.0619 138.882 74.3737 139.22 74.9485C139.559 75.5222 139.728 75.9022 139.728 76.0861H139.757C139.757 75.8997 139.918 75.5271 140.241 74.968C140.563 74.409 140.724 74.0899 140.724 74.012H141.295L141.298 74.0107Z" fill="#7C7C7C"/>
<path d="M149.352 75.9479C150.131 75.8931 150.911 75.8688 151.69 75.8469C152.469 75.8249 153.249 75.8274 154.028 75.8164C154.808 75.8261 155.587 75.8261 156.367 75.8469C157.146 75.8676 157.926 75.8931 158.705 75.9479C157.926 76.0028 157.146 76.0283 156.367 76.049C155.587 76.0697 154.808 76.0685 154.028 76.0795C153.249 76.0685 152.469 76.0709 151.69 76.049C150.911 76.0283 150.131 76.0028 149.352 75.9479Z" fill="#7C7C7C"/>
<path d="M31.2734 75.9479C32.0529 75.8931 32.8324 75.8688 33.6119 75.8469C34.3913 75.8249 35.1708 75.8274 35.9503 75.8164C36.7297 75.8261 37.5092 75.8261 38.2887 75.8469C39.0682 75.8676 39.8476 75.8931 40.6271 75.9479C39.8476 76.0028 39.0682 76.0283 38.2887 76.049C37.5092 76.0697 36.7297 76.0685 35.9503 76.0795C35.1708 76.0685 34.3913 76.0709 33.6119 76.049C32.8324 76.0283 32.0529 76.0028 31.2734 75.9479Z" fill="#7C7C7C"/>
</g>
</g>
<defs>
<filter id="filter0_d_202_161" x="0" y="0" width="189.97" height="85.94" filterUnits="userSpaceOnUse" color-interpolation-filters="sRGB">
<feFlood flood-opacity="0" result="BackgroundImageFix"/>
<feColorMatrix in="SourceAlpha" type="matrix" values="0 0 0 0 0 0 0 0 0 0 0 0 0 0 0 0 0 0 127 0" result="hardAlpha"/>
<feOffset dy="4"/>
<feGaussianBlur stdDeviation="2"/>
<feComposite in2="hardAlpha" operator="out"/>
<feColorMatrix type="matrix" values="0 0 0 0 0 0 0 0 0 0 0 0 0 0 0 0 0 0 0.25 0"/>
<feBlend mode="normal" in2="BackgroundImageFix" result="effect1_dropShadow_202_161"/>
<feBlend mode="normal" in="SourceGraphic" in2="effect1_dropShadow_202_161" result="shape"/>
</filter>
<clipPath id="clip0_202_161">
<rect width="181.97" height="77.94" fill="white" transform="translate(4)"/>
</clipPath>
</defs>
</svg>
